<svg width="24" height="24" viewBox="0 0 24 24" fill="none" xmlns="http://www.w3.org/2000/svg">
<g id="Icon/Nav/Notification/Inactive">
<path id="Union" fill-rule="evenodd" clip-rule="evenodd" d="M11.9958 1.76416C9.52115 1.76416 7.72133 2.89651 6.55988 4.3939C5.41674 5.86768 4.88489 7.69875 4.88489 9.18368C4.88489 9.60993 4.89784 9.92637 4.90767 10.1665L4.90767 10.1666C4.90969 10.2159 4.91158 10.262 4.91319 10.3052C4.92286 10.5635 4.9209 10.6876 4.90103 10.8105C4.85586 11.0901 4.71284 11.4345 4.14143 12.6938C4.13574 12.7063 4.13039 12.719 4.12539 12.7319C3.71229 13.7943 3.80439 14.7717 4.29527 15.6C4.76369 16.3904 5.5512 16.9724 6.40247 17.3971C8.10478 18.2463 10.3554 18.6118 11.9958 18.6118C13.6358 18.6118 15.8862 18.2463 17.5885 17.3971C18.4398 16.9724 19.2273 16.3904 19.6958 15.6001C20.1868 14.7719 20.2792 13.7945 19.8663 12.732C19.8613 12.7191 19.856 12.7064 19.8502 12.6938C19.2788 11.4345 19.1358 11.0901 19.0906 10.8105C19.0708 10.6876 19.0688 10.5635 19.0785 10.3052C19.0801 10.262 19.082 10.2159 19.084 10.1665C19.0938 9.92636 19.1068 9.60992 19.1068 9.18368C19.1068 7.69867 18.5747 5.86761 17.4314 4.39386C16.2699 2.89654 14.4701 1.76416 11.9958 1.76416ZM6.38489 9.18368C6.38489 8.01433 6.81637 6.51064 7.74513 5.31323C8.65559 4.13943 10.0362 3.26416 11.9958 3.26416C13.9549 3.26416 15.3356 4.1394 16.2462 5.31327C17.1751 6.51071 17.6068 8.01441 17.6068 9.18368C17.6068 9.57679 17.5952 9.86077 17.5855 10.0998C17.5834 10.1515 17.5813 10.201 17.5795 10.2491C17.5696 10.515 17.5643 10.7681 17.6098 11.0497C17.6944 11.5728 17.9513 12.139 18.4652 13.2716L18.4652 13.2716L18.4752 13.2936C18.7239 13.9462 18.644 14.4329 18.4055 14.8352C18.1424 15.279 17.6381 15.696 16.9189 16.0548C15.4802 16.7725 13.4749 17.1118 11.9958 17.1118C10.5163 17.1118 8.5107 16.7725 7.07207 16.0548C6.35286 15.696 5.8487 15.2791 5.58569 14.8353C5.34736 14.4331 5.26752 13.9464 5.51641 13.2937L5.52643 13.2716C6.0404 12.139 6.29732 11.5728 6.38183 11.0497C6.42733 10.7681 6.42209 10.515 6.41214 10.2491C6.41035 10.2012 6.40833 10.1518 6.40623 10.1003L6.40622 10.0998C6.39647 9.86076 6.38489 9.57678 6.38489 9.18368ZM10.245 20.0125C9.96909 19.7036 9.49497 19.6769 9.18605 19.9528C8.87713 20.2287 8.85039 20.7029 9.12633 21.0118C10.7341 22.8117 13.275 22.7879 14.8645 21.0124C15.1407 20.7038 15.1145 20.2297 14.8059 19.9534C14.4973 19.6771 14.0232 19.7033 13.7469 20.0119C12.7478 21.1279 11.2506 21.1383 10.245 20.0125Z" fill="#C1C1C1"/>
</g>
</svg>
