<svg width="24" height="24" viewBox="0 0 24 24" fill="none" xmlns="http://www.w3.org/2000/svg">
<path d="M19.3961 4.6041C18.6934 3.90172 17.8129 3.40361 16.8489 3.16305C15.885 2.92249 14.8737 2.94854 13.9234 3.23841C12.9731 3.52828 12.1195 4.07106 11.4538 4.80869C10.7882 5.54631 10.3357 6.45102 10.1446 7.42602C10.0502 7.91158 9.80475 8.35489 9.44339 8.69269C9.08203 9.03048 8.6232 9.2455 8.13238 9.30704C7.04289 9.44489 6.01392 9.8856 5.1624 10.5791C4.31087 11.2725 3.67094 12.1909 3.31533 13.23C2.95971 14.269 2.90268 15.3869 3.1507 16.4567C3.39872 17.5265 3.94186 18.5053 4.71839 19.2818C5.49492 20.0583 6.47369 20.6015 7.54349 20.8495C8.6133 21.0975 9.73122 21.0405 10.7702 20.6848C11.8092 20.3292 12.7276 19.6893 13.4211 18.8378C14.1146 17.9863 14.5553 16.9573 14.6931 15.8678C14.755 15.3771 14.9702 14.9185 15.3079 14.5572C15.6456 14.1959 16.0888 13.9504 16.5742 13.8556C17.5492 13.6645 18.4539 13.2119 19.1915 12.5463C19.9291 11.8807 20.4719 11.0271 20.7618 10.0768C21.0516 9.12646 21.0777 8.11521 20.8371 7.15123C20.5966 6.18725 20.0985 5.3068 19.3961 4.6041Z" stroke="black" stroke-width="1.20014" stroke-linecap="round" stroke-linejoin="round"/>
<path d="M4.71875 19.2809C4.71875 19.2809 4.76035 15.7173 6.9126 13.565C9.06485 11.4128 10.2394 12.5865 11.6091 11.2167C12.9789 9.84698 12.5877 8.2812 14.3487 6.5202C16.1097 4.75919 19.3964 4.59998 19.3964 4.59998" stroke="black" stroke-width="1.20014" stroke-linecap="round" stroke-linejoin="round"/>
<path d="M18.6529 7.69556C18.6683 8.20095 18.5258 8.69858 18.2454 9.11928C17.9649 9.53998 17.5603 9.86286 17.0879 10.043" stroke="black" stroke-width="1.20014" stroke-linecap="round" stroke-linejoin="round"/>
<path d="M8.08691 18.2616C8.60897 18.4056 9.16445 18.3678 9.66222 18.1545C10.16 17.9412 10.5705 17.5651 10.8264 17.0879" stroke="black" stroke-width="1.20014" stroke-linecap="round" stroke-linejoin="round"/>
</svg>
