<svg width="24" height="24" viewBox="0 0 24 24" fill="none" xmlns="http://www.w3.org/2000/svg">
<path d="M12 3C16.977 3 21 7.032 21 12C21 16.977 16.977 21 12 21C7.032 21 3 16.977 3 12C3 7.032 7.032 3 12 3ZM11.685 7.437C11.316 7.437 11.01 7.734 11.01 8.112V12.657C11.01 12.891 11.136 13.107 11.343 13.233L14.871 15.339C14.979 15.402 15.096 15.438 15.222 15.438C15.447 15.438 15.672 15.321 15.798 15.105C15.987 14.79 15.888 14.376 15.564 14.178L12.36 12.27V8.112C12.36 7.734 12.054 7.437 11.685 7.437Z" fill="#303030"/>
</svg>
