<svg width="24" height="24" viewBox="0 0 24 24" fill="none" xmlns="http://www.w3.org/2000/svg">
<path d="M6.85058 2.83223C5.74095 1.72259 3.94187 1.72259 2.83223 2.83223C1.72259 3.94187 1.72259 5.74095 2.83223 6.85058L2.87498 6.89333L7.20704 11.2984C7.61714 11.7154 7.61434 12.3851 7.20077 12.7987L2.87498 17.1245C1.74531 18.2071 1.72721 20.0143 2.82188 21.1322C3.92796 22.2619 5.75394 22.2822 6.87184 21.1643L6.89333 21.1428L11.292 16.7441C11.7105 16.3256 12.3899 16.3285 12.8049 16.7504L17.1245 21.1428C18.2037 22.2689 19.9976 22.288 21.1005 21.1851L21.1851 21.1005C22.288 19.9976 22.2689 18.2037 21.1428 17.1245L16.7504 12.8049C16.3285 12.3899 16.3256 11.7105 16.7441 11.292L21.1428 6.89333L21.1643 6.87184C22.2822 5.75394 22.2619 3.92796 21.1322 2.82188C20.0143 1.72721 18.2071 1.74531 17.1245 2.87498L12.7987 7.20077C12.3851 7.61434 11.7154 7.61714 11.2984 7.20704L6.89333 2.87498L6.85058 2.83223Z" fill="#303030"/>
</svg>
