<svg width="24" height="24" viewBox="0 0 24 24" fill="none" xmlns="http://www.w3.org/2000/svg">
<path d="M4 4V6.94231C4 7.80936 4.34444 8.6409 4.95754 9.254C5.57064 9.8671 6.40218 10.2115 7.26923 10.2115C8.13628 10.2115 8.96783 9.8671 9.58093 9.254C10.194 8.6409 10.5385 7.80936 10.5385 6.94231V4" stroke="#000001" stroke-linecap="round" stroke-linejoin="round"/>
<path d="M7.26953 4V21" stroke="#000001" stroke-linecap="round" stroke-linejoin="round"/>
<path d="M21 21C18.7457 21 16.5837 20.1045 14.9896 18.5104C13.3955 16.9163 12.5 14.7543 12.5 12.5C12.5 10.2457 13.3955 8.08365 14.9896 6.48959C16.5837 4.89553 18.7457 4 21 4" stroke="#000001" stroke-linecap="round" stroke-linejoin="round"/>
<path d="M20.9998 17.0769C19.7859 17.0769 18.6217 16.5947 17.7634 15.7364C16.9051 14.8781 16.4229 13.7139 16.4229 12.5C16.4229 11.2861 16.9051 10.122 17.7634 9.26365C18.6217 8.40531 19.7859 7.9231 20.9998 7.9231" stroke="#000001" stroke-linecap="round" stroke-linejoin="round"/>
</svg>
