<svg width="24" height="24" viewBox="0 0 24 24" fill="none" xmlns="http://www.w3.org/2000/svg">
<path fill-rule="evenodd" clip-rule="evenodd" d="M4.08098 11.4315C4.08098 7.35149 7.4621 4.04401 11.6329 4.04401C15.8038 4.04401 19.1849 7.35149 19.1849 11.4315C19.1849 15.5115 15.8038 18.819 11.6329 18.819C7.4621 18.819 4.08098 15.5115 4.08098 11.4315ZM11.6329 2.40002C6.53394 2.40002 2.40039 6.44355 2.40039 11.4315C2.40039 16.4194 6.53394 20.4629 11.6329 20.4629C13.7687 20.4629 15.7351 19.7535 17.2993 18.5624L20.1667 21.36C20.4953 21.6806 21.0273 21.6799 21.355 21.3585C21.6828 21.0371 21.6821 20.5166 21.3535 20.196L18.5273 17.4385C19.9817 15.8424 20.8655 13.7379 20.8655 11.4315C20.8655 6.44355 16.7319 2.40002 11.6329 2.40002Z" fill="#303030"/>
</svg>
