<svg width="24" height="24" viewBox="0 0 24 24" fill="none" xmlns="http://www.w3.org/2000/svg">
<path d="M21.8644 2.18011C21.8067 2.11983 21.7318 2.07873 21.65 2.06236C21.5681 2.04599 21.4832 2.05514 21.4067 2.08856L2.26454 10.3363C2.19378 10.3692 2.13322 10.4206 2.08926 10.485C2.04531 10.5495 2.0196 10.6247 2.01486 10.7025C2.01236 10.781 2.03214 10.8587 2.0719 10.9264C2.11167 10.9942 2.1698 11.0493 2.23957 11.0854L7.7908 14.0233C7.82393 14.0458 7.86308 14.0579 7.90315 14.0579C7.94323 14.0579 7.98237 14.0458 8.01551 14.0233L16.5795 7.09049C16.6196 7.06044 16.6692 7.04585 16.7191 7.0494C16.7691 7.05295 16.8161 7.0744 16.8515 7.10982C16.8869 7.14523 16.9084 7.19223 16.9119 7.24219C16.9155 7.29215 16.9009 7.34171 16.8708 7.38178L9.96301 15.9458C9.94047 15.9789 9.92842 16.0181 9.92842 16.0582C9.92842 16.0982 9.94047 16.1374 9.96301 16.1705L12.9009 21.7218C12.935 21.7921 12.9882 21.8514 13.0544 21.893C13.1207 21.9345 13.1973 21.9565 13.2754 21.9565C13.3536 21.9565 13.4302 21.9345 13.4964 21.893C13.5627 21.8514 13.6159 21.7921 13.65 21.7218L21.9893 2.63786C22.0188 2.55807 22.0227 2.47104 22.0003 2.38896C21.9779 2.30688 21.9304 2.23385 21.8644 2.18011Z" fill="black"/>
</svg>
