<svg width="24" height="24" viewBox="0 0 24 24" fill="none" xmlns="http://www.w3.org/2000/svg">
<path d="M3 12.45C2.85413 12.45 2.71424 12.5079 2.61109 12.6111C2.50795 12.7142 2.45 12.8541 2.45 13C2.45 15.1435 3.48857 17.1712 5.28723 18.647C6.17739 19.3774 7.22868 19.9524 8.37899 20.3434C9.52936 20.7344 10.7596 20.9348 12.0002 20.9348C14.5017 20.9348 16.9176 20.1203 18.7132 18.647C20.5119 17.1712 21.5504 15.1435 21.5504 13C21.5504 12.6962 21.3042 12.45 21.0004 12.45H3Z" stroke="black" stroke-width="1.1" stroke-linecap="round" stroke-linejoin="round"/>
<path d="M7.63235 3.08647C7.7086 3.03029 7.80081 2.99999 7.8955 3C7.96617 2.99992 8.03584 3.01673 8.09871 3.04904C8.16158 3.08134 8.21583 3.12821 8.25695 3.18574C8.29807 3.24326 8.32487 3.30978 8.33511 3.37976C8.34535 3.44975 8.33875 3.52116 8.31584 3.58808L8.03243 4.45805C7.78378 5.2201 7.89906 6.19766 8.26557 6.76004C8.82116 7.61254 8.93457 8.79508 8.59925 9.82272L8.31584 10.6936C8.29775 10.749 8.26891 10.8004 8.23098 10.8447C8.19305 10.889 8.14677 10.9254 8.09478 10.9519C8.04279 10.9783 7.98611 10.9942 7.92797 10.9987C7.86984 11.0032 7.81139 10.9962 7.75596 10.9781C7.70053 10.9599 7.64921 10.9311 7.60492 10.8931C7.56064 10.8552 7.52426 10.8088 7.49786 10.7568C7.47147 10.7048 7.45557 10.6481 7.45108 10.5899C7.44658 10.5317 7.45358 10.4732 7.47168 10.4177L7.75509 9.54777C8.00375 8.78572 7.88847 7.80815 7.52195 7.24577C6.96636 6.39328 6.85295 5.21073 7.18827 4.18309L7.47168 3.31225C7.4998 3.22177 7.5561 3.14265 7.63235 3.08647Z" fill="black"/>
<path d="M11.4195 3.08647C11.4957 3.03029 11.5879 2.99999 11.6826 3C11.7533 2.99992 11.823 3.01673 11.8858 3.04904C11.9487 3.08134 12.0029 3.12821 12.0441 3.18574C12.0852 3.24326 12.112 3.30978 12.1222 3.37976C12.1325 3.44975 12.1259 3.52116 12.103 3.58808L11.8195 4.45805C11.5709 5.2201 11.6862 6.19766 12.0527 6.76004C12.6083 7.61254 12.7217 8.79508 12.3864 9.82272L12.103 10.6936C12.0849 10.749 12.056 10.8004 12.0181 10.8447C11.9802 10.889 11.9339 10.9254 11.8819 10.9519C11.8299 10.9783 11.7732 10.9942 11.7151 10.9987C11.6569 11.0032 11.5985 10.9962 11.5431 10.9781C11.4876 10.9599 11.4363 10.9311 11.392 10.8931C11.3477 10.8552 11.3114 10.8088 11.285 10.7568C11.2586 10.7048 11.2427 10.6481 11.2382 10.5899C11.2337 10.5317 11.2407 10.4732 11.2588 10.4177L11.5422 9.54777C11.7909 8.78572 11.6756 7.80815 11.3091 7.24577C10.7535 6.39328 10.6401 5.21073 10.9754 4.18309L11.2588 3.31225C11.2869 3.22177 11.3432 3.14265 11.4195 3.08647Z" fill="black"/>
<path d="M15.2075 3.08647C15.2838 3.03029 15.376 2.99999 15.4707 3C15.5414 2.99992 15.611 3.01673 15.6739 3.04904C15.7368 3.08134 15.791 3.12821 15.8321 3.18574C15.8733 3.24326 15.9001 3.30978 15.9103 3.37976C15.9205 3.44975 15.9139 3.52116 15.891 3.58808L15.6076 4.45805C15.359 5.2201 15.4743 6.19766 15.8408 6.76004C16.3964 7.61254 16.5098 8.79508 16.1744 9.82272L15.891 10.6936C15.8729 10.749 15.8441 10.8004 15.8062 10.8447C15.7682 10.889 15.722 10.9254 15.67 10.9519C15.618 10.9783 15.5613 10.9942 15.5032 10.9987C15.445 11.0032 15.3866 10.9962 15.3312 10.9781C15.2757 10.9599 15.2244 10.9311 15.1801 10.8931C15.1358 10.8552 15.0995 10.8088 15.0731 10.7568C15.0467 10.7048 15.0308 10.6481 15.0263 10.5899C15.0218 10.5317 15.0288 10.4732 15.0469 10.4177L15.3303 9.54777C15.5789 8.78572 15.4637 7.80815 15.0971 7.24577C14.5416 6.39328 14.4281 5.21073 14.7635 4.18309L15.0469 3.31225C15.075 3.22177 15.1313 3.14265 15.2075 3.08647Z" fill="black"/>
</svg>
