<svg width="24" height="24" viewBox="0 0 24 24" fill="none" xmlns="http://www.w3.org/2000/svg">
<path d="M21.6084 5.61121H20.0212C20.0196 5.61121 20.018 5.61121 20.0156 5.61121H18.4084C17.9668 5.61121 17.6084 5.96881 17.6084 6.41121C17.6084 6.85361 17.9668 7.21121 18.4084 7.21121H18.7852L15.2076 15.3872L13.2804 10.9824L14.9308 7.21121H16.0076C16.4492 7.21121 16.8076 6.85361 16.8076 6.41121C16.8076 5.96881 16.4492 5.61121 16.0076 5.61121H14.4204C14.4188 5.61121 14.4172 5.61121 14.4148 5.61121H13.6068C13.1652 5.61121 12.8068 5.96881 12.8068 6.41121C12.8068 6.71441 12.982 6.96881 13.2308 7.10481L12.4068 8.98801L11.5828 7.10481C11.8316 6.96961 12.0068 6.71521 12.0068 6.41121C12.0068 5.96881 11.6484 5.61121 11.2068 5.61121H10.4004C10.3988 5.61121 10.3972 5.61121 10.3948 5.61121H8.8004C8.7988 5.61121 8.7972 5.61121 8.7948 5.61121H8.0084C7.5668 5.61121 7.2084 5.96881 7.2084 6.41121C7.2084 6.85361 7.5668 7.21121 8.0084 7.21121H8.2852L10.7348 12.8112L9.6076 15.3872L5.9844 7.10481C6.2332 6.96961 6.4084 6.71521 6.4084 6.41121C6.4084 5.96881 6.05 5.61121 5.6084 5.61121H4.8012C4.7996 5.61121 4.798 5.61121 4.7956 5.61121H3.2004C3.1988 5.61121 3.1972 5.61121 3.1948 5.61121H2.4084C1.9668 5.61121 1.6084 5.96881 1.6084 6.41121C1.6084 6.85361 1.9668 7.21121 2.4084 7.21121H2.6852L8.0756 19.5312C8.2028 19.8224 8.4908 20.0112 8.8084 20.0112C9.126 20.0112 9.414 19.8232 9.5412 19.5312L11.6084 14.8064L13.6756 19.5312C13.8028 19.8224 14.0908 20.0112 14.4084 20.0112C14.726 20.0112 15.014 19.8232 15.1412 19.5312L20.5316 7.21121H21.6084C22.05 7.21121 22.4084 6.85361 22.4084 6.41121C22.4084 5.96881 22.05 5.61121 21.6084 5.61121Z" fill="#303030"/>
</svg>
