<svg width="24" height="24" viewBox="0 0 24 24" fill="none" xmlns="http://www.w3.org/2000/svg">
<path fill-rule="evenodd" clip-rule="evenodd" d="M12.8906 5.22804C12.6072 5.53133 12.6082 6.02201 12.8928 6.324L17.5121 11.225H4.72726L4.62858 11.2321C4.2736 11.2834 4 11.6076 4 12C4 12.428 4.32561 12.7749 4.72726 12.7749H17.5105L12.8928 17.6758L12.8222 17.7626C12.6104 18.0655 12.633 18.4961 12.8907 18.7718C13.1741 19.075 13.6346 19.076 13.9192 18.774L19.7687 12.5666C19.9048 12.4312 19.9921 12.2408 19.9993 12.0286C20.0067 11.8201 19.9355 11.6091 19.7857 11.4502L13.9191 5.22568L13.8374 5.15083C13.5522 4.92638 13.1483 4.95232 12.8906 5.22804Z" fill="#303030"/>
</svg>
