<svg width="24" height="24" viewBox="0 0 24 24" fill="none" xmlns="http://www.w3.org/2000/svg">
<path fill-rule="evenodd" clip-rule="evenodd" d="M11.1094 5.22804C11.3928 5.53133 11.3918 6.02201 11.1072 6.324L6.48795 11.225H19.2727L19.3714 11.2321C19.7264 11.2834 20 11.6076 20 12C20 12.428 19.6744 12.7749 19.2727 12.7749H6.48946L11.1072 17.6758L11.1778 17.7626C11.3896 18.0655 11.367 18.4961 11.1093 18.7718C10.8259 19.075 10.3654 19.076 10.0808 18.774L4.23131 12.5666C4.0952 12.4312 4.00792 12.2408 4.00068 12.0286C3.99333 11.8201 4.06453 11.6091 4.21428 11.4502L10.0809 5.22568L10.1626 5.15083C10.4478 4.92638 10.8517 4.95232 11.1094 5.22804Z" fill="#303030"/>
</svg>
