<svg width="24" height="24" viewBox="0 0 24 24" fill="none" xmlns="http://www.w3.org/2000/svg">
<path fill-rule="evenodd" clip-rule="evenodd" d="M11.9702 2.5C5.58324 2.5 4.50424 3.432 4.50424 10.929C4.50424 19.322 4.34724 21.5 5.94324 21.5C7.53824 21.5 10.1432 17.816 11.9702 17.816C13.7972 17.816 16.4022 21.5 17.9972 21.5C19.5932 21.5 19.4362 19.322 19.4362 10.929C19.4362 3.432 18.3572 2.5 11.9702 2.5Z" fill="#303030"/>
<path fill-rule="evenodd" clip-rule="evenodd" d="M7.95892 2.02799C9.03836 1.80708 10.369 1.75 11.9704 1.75C13.5717 1.75 14.9024 1.80708 15.9818 2.02799C17.0748 2.25168 17.9756 2.65608 18.6524 3.39749C19.3212 4.13015 19.6933 5.10742 19.9066 6.31915C20.1195 7.52872 20.1864 9.04736 20.1864 10.929C20.1864 11.6552 20.1876 12.337 20.1888 12.9766C20.1942 16.0013 20.198 18.0807 20.0616 19.4369C19.9802 20.2461 19.8399 20.9329 19.5314 21.4262C19.3655 21.6915 19.1451 21.9113 18.859 22.0577C18.578 22.2015 18.2813 22.25 17.9974 22.25C17.3486 22.25 16.7195 21.8931 16.2117 21.5403C15.716 21.1959 15.1942 20.7499 14.7007 20.3282C14.6616 20.2948 14.6227 20.2615 14.584 20.2284C14.039 19.7633 13.5272 19.3339 13.0469 19.0186C12.5487 18.6915 12.1985 18.566 11.9704 18.566C11.7422 18.566 11.392 18.6915 10.8938 19.0186C10.4135 19.3339 9.9017 19.7633 9.35679 20.2284C9.31805 20.2615 9.27911 20.2948 9.23999 20.3282C8.74653 20.7499 8.22473 21.1959 7.72902 21.5403C7.22123 21.8931 6.59215 22.25 5.94337 22.25C5.65939 22.25 5.36272 22.2015 5.08172 22.0577C4.7956 21.9113 4.57525 21.6915 4.40933 21.4262C4.10081 20.9329 3.9605 20.2461 3.87913 19.4369C3.74276 18.0807 3.74652 16.0013 3.75198 12.9766C3.75314 12.337 3.75437 11.6552 3.75437 10.929C3.75437 9.04736 3.82121 7.52872 4.03412 6.31915C4.24741 5.10742 4.61952 4.13015 5.28832 3.39749C5.9651 2.65608 6.86591 2.25168 7.95892 2.02799ZM5.51141 6.57919C5.32241 7.65291 5.25437 9.06214 5.25437 10.929C5.25437 11.6729 5.2532 12.3658 5.2521 13.011C5.24697 16.0367 5.24361 18.014 5.37161 19.2868C5.45049 20.0713 5.57018 20.4535 5.68109 20.6309C5.7249 20.7009 5.75413 20.7168 5.76491 20.7223C5.78081 20.7305 5.82835 20.75 5.94337 20.75C6.0921 20.75 6.38676 20.6464 6.8731 20.3085C7.30425 20.0089 7.77065 19.6105 8.28271 19.1732C8.31593 19.1448 8.34935 19.1162 8.38295 19.0876C8.91704 18.6317 9.49874 18.1401 10.0706 17.7647C10.6245 17.401 11.285 17.066 11.9704 17.066C12.6557 17.066 13.3163 17.401 13.8702 17.7647C14.442 18.1401 15.0237 18.6317 15.5578 19.0876C15.5914 19.1162 15.6248 19.1448 15.658 19.1731C16.1701 19.6105 16.6365 20.0089 17.0676 20.3085C17.554 20.6464 17.8486 20.75 17.9974 20.75C18.1124 20.75 18.1599 20.7305 18.1758 20.7223C18.1866 20.7168 18.2158 20.7009 18.2596 20.6309C18.3706 20.4535 18.4903 20.0713 18.5691 19.2868C18.6971 18.014 18.6938 16.0367 18.6886 13.0109C18.6875 12.3657 18.6864 11.6729 18.6864 10.929C18.6864 9.06214 18.6183 7.65291 18.4293 6.57919C18.2407 5.50764 17.9439 4.84622 17.5446 4.40876C17.1532 3.98004 16.5867 3.68288 15.6811 3.49754C14.7619 3.30942 13.5625 3.25 11.9704 3.25C10.3782 3.25 9.17888 3.30942 8.25967 3.49754C7.35402 3.68288 6.78752 3.98004 6.39617 4.40876C5.99684 4.84622 5.70002 5.50764 5.51141 6.57919Z" fill="#303030"/>
<path fill-rule="evenodd" clip-rule="evenodd" d="M7.79297 9.21765C7.79297 8.80344 8.12876 8.46765 8.54297 8.46765H15.398C15.8122 8.46765 16.148 8.80344 16.148 9.21765C16.148 9.63186 15.8122 9.96765 15.398 9.96765H8.54297C8.12876 9.96765 7.79297 9.63186 7.79297 9.21765Z" fill="white"/>
</svg>
