<svg width="24" height="24" viewBox="0 0 24 24" fill="none" xmlns="http://www.w3.org/2000/svg">
<path fill-rule="evenodd" clip-rule="evenodd" d="M11.1999 5.01572C12.4566 3.34144 14.8325 3.00253 16.5078 4.25893C18.1823 5.51578 18.52 7.89313 17.2636 9.56715L16.0376 11.2005C16.018 11.2392 15.9948 11.2767 15.9678 11.3126C15.9409 11.3485 15.9113 11.3813 15.8797 11.411L14.5307 13.2082C13.0571 15.1714 11.3691 17.4202 10.5115 18.5623C9.48054 19.9365 8.00264 20.3746 6.86218 20.4848C6.28794 20.5403 5.77723 20.5158 5.41023 20.4778C5.22587 20.4587 5.07543 20.436 4.96856 20.4175C4.91506 20.4083 4.8723 20.4 4.84146 20.3938L4.80424 20.386L4.79257 20.3834L4.78852 20.3825L4.78694 20.3821C4.78694 20.3821 4.78567 20.3819 4.95376 19.6509L4.30264 20.0231L4.30148 20.0211L4.29941 20.0175L4.29353 20.007L4.27526 19.9735C4.26033 19.9458 4.2401 19.9072 4.21582 19.8588C4.16734 19.7619 4.10241 19.6247 4.0314 19.454C3.89006 19.1141 3.72102 18.6329 3.61214 18.0669C3.39538 16.9402 3.40574 15.3999 4.44782 14.0108L11.1999 5.01572ZM4.30264 20.0231C4.40658 20.2046 4.58187 20.335 4.78567 20.3819L4.95376 19.6509C4.30295 20.0237 4.30264 20.0231 4.30264 20.0231ZM15.2092 9.80543L16.0639 8.66672C16.8235 7.65474 16.619 6.21793 15.6075 5.45877C14.5948 4.69936 13.1589 4.9045 12.3996 5.91615L11.5448 7.05488L15.2092 9.80543ZM10.6443 8.25451L14.3088 11.0051L13.3311 12.3077C11.8574 14.271 10.1692 16.52 9.31179 17.6619C8.62876 18.5725 7.62779 18.9038 6.71783 18.9918C6.26682 19.0354 5.8594 19.0163 5.56459 18.9858C5.52675 18.9819 5.49092 18.9778 5.45725 18.9736C5.44411 18.9437 5.43044 18.9117 5.41639 18.8779C5.30364 18.6069 5.17011 18.2252 5.08513 17.7835C4.91413 16.8947 4.95077 15.84 5.64769 14.911L10.6443 8.25451ZM12.5851 19.5078C12.5851 19.0936 12.9209 18.7578 13.3351 18.7578H19.7121C20.1264 18.7578 20.4621 19.0936 20.4621 19.5078C20.4621 19.922 20.1264 20.2578 19.7121 20.2578H13.3351C12.9209 20.2578 12.5851 19.922 12.5851 19.5078Z" fill="#303030"/>
</svg>
