<svg width="24" height="24" viewBox="0 0 24 24" fill="none" xmlns="http://www.w3.org/2000/svg">
<path d="M4 5.64364C4 5.15223 4 4.90653 4.09688 4.71883C4.18211 4.55374 4.31809 4.41951 4.48535 4.33538C4.6755 4.23975 4.92442 4.23975 5.42225 4.23975H18.578C19.0759 4.23975 19.3248 4.23975 19.5149 4.33538C19.6822 4.41951 19.8182 4.55374 19.9034 4.71883C20.0003 4.90653 20.0003 5.15223 20.0003 5.64364V7.16798C20.0003 7.38259 20.0003 7.48989 19.9758 7.59087C19.954 7.68041 19.9181 7.76599 19.8693 7.8445C19.8143 7.93305 19.7374 8.00893 19.5837 8.16068L14.1945 13.4804C14.0408 13.6321 13.9639 13.708 13.909 13.7965C13.8602 13.875 13.8243 13.9606 13.8025 14.0502C13.778 14.1512 13.778 14.2585 13.778 14.473V16.5238L10.2223 20.0336V14.473C10.2223 14.2585 10.2223 14.1512 10.1978 14.0502C10.176 13.9606 10.1401 13.875 10.0913 13.7965C10.0364 13.708 9.9595 13.6321 9.80577 13.4804L4.41657 8.16068C4.26283 8.00893 4.18596 7.93305 4.13099 7.8445C4.08225 7.76599 4.04634 7.68041 4.02456 7.59087C4 7.48989 4 7.38259 4 7.16798V5.64364Z" stroke="black" stroke-linecap="round" stroke-linejoin="round"/>
</svg>
