<svg width="24" height="24" viewBox="0 0 24 24" fill="none" xmlns="http://www.w3.org/2000/svg">
<path d="M7.75787 11.1372L3.40144 15.4529C3.27424 15.5791 3.17327 15.7292 3.10437 15.8946C3.03547 16.0599 3 16.2373 3 16.4165C3 16.5957 3.03547 16.773 3.10437 16.9384C3.17327 17.1038 3.27424 17.2539 3.40144 17.3801L6.27858 20.2572C6.40475 20.3844 6.55485 20.4854 6.72023 20.5543C6.88561 20.6232 7.063 20.6586 7.24215 20.6586C7.42131 20.6586 7.5987 20.6232 7.76408 20.5543C7.92946 20.4854 8.07956 20.3844 8.20573 20.2572L12.5214 15.9008" stroke="#303030" stroke-width="2" stroke-linecap="round" stroke-linejoin="round"/>
<path d="M15.9003 12.5214L20.216 8.20573C20.3432 8.07956 20.4442 7.92946 20.5131 7.76408C20.582 7.5987 20.6174 7.42131 20.6174 7.24215C20.6174 7.063 20.582 6.88561 20.5131 6.72023C20.4442 6.55485 20.3432 6.40475 20.216 6.27858L17.3796 3.40144C17.2534 3.27424 17.1033 3.17327 16.9379 3.10437C16.7726 3.03547 16.5952 3 16.416 3C16.2368 3 16.0595 3.03547 15.8941 3.10437C15.7287 3.17327 15.5786 3.27424 15.4524 3.40144L11.1367 7.75787" stroke="#303030" stroke-width="2" stroke-linecap="round" stroke-linejoin="round"/>
<path d="M14.5438 9.11499L9.11523 14.5436" stroke="#303030" stroke-width="2" stroke-linecap="round" stroke-linejoin="round"/>
</svg>
