<svg width="24" height="24" viewBox="0 0 24 24" fill="none" xmlns="http://www.w3.org/2000/svg">
<path d="M6.43892 3.32807C6.86506 3.10936 7.3125 3 7.78125 3C8.27131 3.02187 9.1875 3.35213 9.54972 3.50304C11.9361 4.46537 16.4957 7.61482 18.2429 9.53949C18.5412 9.84569 18.8608 10.2175 18.946 10.305C19.3082 10.7861 19.5 11.3767 19.5 12.0131C19.5 12.5796 19.3295 13.1482 18.9886 13.6075C18.9247 13.695 18.6264 14.0668 18.392 14.3074L18.2642 14.4386C16.4744 16.4289 12.0213 19.4253 9.76278 20.3876C9.76278 20.4095 8.42045 20.9781 7.78125 21H7.69602C6.71591 21 5.79972 20.4313 5.33097 19.5128C5.07528 19.0097 4.84091 17.5443 4.8196 17.5225C4.62784 16.2102 4.5 14.2002 4.5 11.9891C4.5 9.67072 4.62784 7.57108 4.86222 6.28068C4.86222 6.25881 5.09659 5.07776 5.24574 4.68408C5.48011 4.11543 5.90625 3.63427 6.43892 3.32807Z" fill="#303030"/>
</svg>
