<svg width="24" height="24" viewBox="0 0 24 24" fill="none" xmlns="http://www.w3.org/2000/svg">
<path fill-rule="evenodd" clip-rule="evenodd" d="M3.0498 12.0369C3.0498 8.42744 3.66122 6.25956 4.96027 4.96051C6.25931 3.66147 8.42719 3.05005 12.0366 3.05005C15.6461 3.05005 17.814 3.66147 19.113 4.96051C20.4121 6.25956 21.0235 8.42744 21.0235 12.0369C21.0235 15.6463 20.4121 17.8142 19.113 19.1133C17.814 20.4123 15.6461 21.0237 12.0366 21.0237C8.42719 21.0237 6.25931 20.4123 4.96027 19.1133C3.66122 17.8142 3.0498 15.6463 3.0498 12.0369ZM12.0366 1.55005C8.344 1.55005 5.64346 2.156 3.89961 3.89985C2.15576 5.6437 1.5498 8.34424 1.5498 12.0369C1.5498 15.7295 2.15576 18.4301 3.89961 20.1739C5.64346 21.9178 8.344 22.5237 12.0366 22.5237C15.7293 22.5237 18.4298 21.9178 20.1737 20.1739C21.9175 18.4301 22.5235 15.7295 22.5235 12.0369C22.5235 8.34424 21.9175 5.6437 20.1737 3.89985C18.4298 2.156 15.7293 1.55005 12.0366 1.55005ZM12.0367 7.71268C12.4509 7.71268 12.7867 8.04846 12.7867 8.46268V11.2869H15.6145C16.0287 11.2869 16.3645 11.6227 16.3645 12.0369C16.3645 12.4511 16.0287 12.7869 15.6145 12.7869H12.7867V15.6111C12.7867 16.0253 12.4509 16.3611 12.0367 16.3611C11.6225 16.3611 11.2867 16.0253 11.2867 15.6111V12.7869H8.45868C8.04447 12.7869 7.70868 12.4511 7.70868 12.0369C7.70868 11.6227 8.04447 11.2869 8.45868 11.2869H11.2867V8.46268C11.2867 8.04846 11.6225 7.71268 12.0367 7.71268Z" fill="#130F26"/>
</svg>
