<svg width="24" height="24" viewBox="0 0 24 24" fill="none" xmlns="http://www.w3.org/2000/svg">
<path d="M17.3251 14.1971C17.092 14.4349 16.985 14.7788 17.0381 15.116L17.838 19.7768C17.9055 20.1718 17.7472 20.5716 17.4331 20.7999C17.1253 21.0367 16.7159 21.0651 16.3802 20.8756L12.3947 18.6874C12.2561 18.6097 12.1022 18.568 11.9447 18.5633H11.7009C11.6163 18.5765 11.5335 18.605 11.4579 18.6485L7.4714 20.8472C7.27433 20.9514 7.05116 20.9884 6.83249 20.9514C6.29976 20.8453 5.9443 20.3111 6.03159 19.7474L6.83249 15.0867C6.88558 14.7466 6.77849 14.4008 6.54543 14.1593L3.29595 10.8437C3.02419 10.5661 2.9297 10.1493 3.05388 9.77323C3.17447 9.3981 3.48223 9.12433 3.85388 9.06275L8.32629 8.37975C8.66645 8.3428 8.96521 8.12492 9.11819 7.80284L11.0889 3.54944C11.1357 3.45471 11.196 3.36755 11.2689 3.29366L11.3499 3.22735C11.3922 3.17809 11.4408 3.13736 11.4948 3.1042L11.5929 3.06631L11.7458 3H12.1247C12.4631 3.03694 12.7609 3.25009 12.9166 3.56838L14.9134 7.80284C15.0574 8.11261 15.3373 8.32764 15.6603 8.37975L20.1327 9.06275C20.5107 9.11959 20.8266 9.39431 20.9516 9.77323C21.0695 10.1531 20.9678 10.5699 20.6907 10.8437L17.3251 14.1971Z" fill="#303030"/>
</svg>
