<svg width="24" height="24" viewBox="0 0 24 24" fill="none" xmlns="http://www.w3.org/2000/svg">
<g id="Icon/Nav/Bookmark/Active">
<g id="Icon">
<path id="Stroke 2" fill-rule="evenodd" clip-rule="evenodd" d="M11.9702 2.5C5.58324 2.5 4.50424 3.432 4.50424 10.929C4.50424 19.322 4.34724 21.5 5.94324 21.5C7.53824 21.5 10.1432 17.816 11.9702 17.816C13.7972 17.816 16.4022 21.5 17.9972 21.5C19.5932 21.5 19.4362 19.322 19.4362 10.929C19.4362 3.432 18.3572 2.5 11.9702 2.5Z" fill="#F9D8D8"/>
<path id="Union" fill-rule="evenodd" clip-rule="evenodd" d="M11.9704 1.75C10.369 1.75 9.03836 1.80708 7.95892 2.02799C6.86591 2.25168 5.9651 2.65608 5.28832 3.39749C4.61952 4.13015 4.24741 5.10742 4.03412 6.31915C3.82121 7.52872 3.75437 9.04736 3.75437 10.929C3.75437 11.6552 3.75314 12.337 3.75198 12.9766L3.75198 12.9766C3.74652 16.0013 3.74276 18.0807 3.87913 19.4369C3.9605 20.2461 4.10081 20.9329 4.40933 21.4262C4.57525 21.6915 4.7956 21.9113 5.08172 22.0577C5.36272 22.2015 5.65939 22.25 5.94337 22.25C6.59215 22.25 7.22123 21.8931 7.72902 21.5403C8.22473 21.1959 8.74653 20.7499 9.23999 20.3282L9.35679 20.2284C9.9017 19.7633 10.4135 19.3339 10.8938 19.0186C11.392 18.6915 11.7422 18.566 11.9704 18.566C12.1985 18.566 12.5487 18.6915 13.0469 19.0186C13.5272 19.3339 14.039 19.7633 14.584 20.2284L14.7007 20.3282C15.1942 20.7499 15.716 21.1959 16.2117 21.5403C16.7195 21.8931 17.3486 22.25 17.9974 22.25C18.2813 22.25 18.578 22.2015 18.859 22.0577C19.1451 21.9113 19.3655 21.6915 19.5314 21.4262C19.8399 20.9329 19.9802 20.2461 20.0616 19.4369C20.198 18.0807 20.1942 16.0013 20.1888 12.9766C20.1876 12.337 20.1864 11.6552 20.1864 10.929C20.1864 9.04736 20.1195 7.52872 19.9066 6.31915C19.6933 5.10742 19.3212 4.13015 18.6524 3.39749C17.9756 2.65608 17.0748 2.25168 15.9818 2.02799C14.9024 1.80708 13.5717 1.75 11.9704 1.75ZM5.25437 10.929C5.25437 9.06214 5.32241 7.65291 5.51141 6.57919C5.70002 5.50764 5.99684 4.84622 6.39617 4.40876C6.78752 3.98004 7.35402 3.68288 8.25967 3.49754C9.17888 3.30942 10.3782 3.25 11.9704 3.25C13.5625 3.25 14.7619 3.30942 15.6811 3.49754C16.5867 3.68288 17.1532 3.98004 17.5446 4.40876C17.9439 4.84622 18.2407 5.50764 18.4293 6.57919C18.6183 7.65291 18.6864 9.06214 18.6864 10.929C18.6864 11.6729 18.6875 12.3657 18.6886 13.0109C18.6938 16.0367 18.6971 18.014 18.5691 19.2868C18.4903 20.0713 18.3706 20.4535 18.2596 20.6309C18.2158 20.7009 18.1866 20.7168 18.1758 20.7223C18.1599 20.7305 18.1124 20.75 17.9974 20.75C17.8486 20.75 17.554 20.6464 17.0676 20.3085C16.6365 20.0089 16.1701 19.6105 15.658 19.1731L15.5578 19.0876C15.0237 18.6317 14.442 18.1401 13.8702 17.7647C13.3163 17.401 12.6557 17.066 11.9704 17.066C11.285 17.066 10.6245 17.401 10.0706 17.7647C9.49874 18.1401 8.91704 18.6317 8.38295 19.0876L8.28271 19.1732L8.28267 19.1732C7.77062 19.6105 7.30423 20.0089 6.8731 20.3085C6.38676 20.6464 6.0921 20.75 5.94337 20.75C5.82835 20.75 5.78081 20.7305 5.76491 20.7223C5.75413 20.7168 5.7249 20.7009 5.68109 20.6309C5.57018 20.4535 5.45049 20.0713 5.37161 19.2868C5.24361 18.014 5.24697 16.0367 5.2521 13.011C5.2532 12.3658 5.25437 11.6729 5.25437 10.929ZM8.5426 8.4677C8.12839 8.4677 7.7926 8.80348 7.7926 9.2177C7.7926 9.63191 8.12839 9.9677 8.5426 9.9677H15.3976C15.8118 9.9677 16.1476 9.63191 16.1476 9.2177C16.1476 8.80348 15.8118 8.4677 15.3976 8.4677H8.5426Z" fill="#E23E3E"/>
</g>
</g>
</svg>
