<svg width="24" height="24" viewBox="0 0 24 24" fill="none" xmlns="http://www.w3.org/2000/svg">
<g id="Icon/Nav/Home/Active">
<g id="Icon">
<path id="Stroke 2" fill-rule="evenodd" clip-rule="evenodd" d="M2.40039 13.713C2.40039 8.082 3.01439 8.475 6.31939 5.41C7.76539 4.246 10.0154 2 11.9584 2C13.9004 2 16.1954 4.235 17.6544 5.41C20.9594 8.475 21.5724 8.082 21.5724 13.713C21.5724 22 19.6134 22 11.9864 22C4.35939 22 2.40039 22 2.40039 13.713Z" fill="#F9D8D8"/>
<path id="Union" fill-rule="evenodd" clip-rule="evenodd" d="M5.69801 6.97845C6.02729 6.68822 6.3977 6.35978 6.81025 5.97765C7.07582 5.76324 7.34813 5.5313 7.62978 5.2914L7.62981 5.29137C8.175 4.827 8.75523 4.33278 9.38952 3.87803C10.3614 3.18121 11.2413 2.75 11.9584 2.75C12.6779 2.75 13.5699 3.18118 14.5548 3.87695C15.2181 4.34554 15.833 4.86414 16.4041 5.34588C16.6663 5.56703 16.9193 5.78041 17.1635 5.97762C17.576 6.35976 17.9465 6.6882 18.2757 6.97843L18.4115 7.09801L18.4117 7.0982C18.6908 7.34402 18.9338 7.55806 19.1521 7.75958C19.6573 8.22601 19.9764 8.57818 20.202 8.97204C20.6543 9.76166 20.8224 10.8689 20.8224 13.713C20.8224 15.7691 20.6993 17.2451 20.4212 18.3153C20.1482 19.3658 19.7413 19.9679 19.2022 20.3548C18.6391 20.759 17.8354 20.9997 16.6249 21.1245C15.4157 21.2491 13.9074 21.25 11.9864 21.25C10.0654 21.25 8.55705 21.2491 7.34784 21.1245C6.13743 20.9997 5.33365 20.759 4.77061 20.3548C4.23151 19.9679 3.82454 19.3658 3.55155 18.3153C3.27345 17.2451 3.15039 15.7691 3.15039 13.713C3.15039 10.869 3.31874 9.76176 3.77124 8.97216C3.99696 8.57827 4.31615 8.22608 4.82146 7.75963C5.03964 7.55824 5.28253 7.34435 5.56144 7.09875L5.69801 6.97845ZM11.9584 1.25C10.7325 1.25 9.51584 1.94179 8.51551 2.65897C7.83544 3.14655 7.15431 3.72566 6.58032 4.21367L6.58032 4.21367L6.58029 4.21369C6.30876 4.44455 6.06121 4.65502 5.8491 4.82577C5.83547 4.83674 5.82223 4.84818 5.8094 4.86008C5.40338 5.23661 5.038 5.56069 4.70619 5.85316L4.5717 5.97161L4.57165 5.97165C4.29412 6.21603 4.03621 6.44312 3.80404 6.65743C3.26469 7.1553 2.81069 7.63148 2.46979 8.22634C1.78904 9.41424 1.65039 10.926 1.65039 13.713C1.65039 15.8004 1.7722 17.432 2.09976 18.6926C2.43243 19.9727 2.9919 20.9245 3.89592 21.5734C4.77601 22.2051 5.89204 22.4824 7.19404 22.6166C8.48869 22.75 10.0729 22.75 11.9492 22.75H11.9492H12.0235H12.0236C13.8998 22.75 15.4841 22.75 16.7787 22.6166C18.0807 22.4824 19.1968 22.2051 20.0769 21.5734C20.9809 20.9245 21.5404 19.9727 21.873 18.6926C22.2006 17.432 22.3224 15.8004 22.3224 13.713C22.3224 10.9261 22.184 9.41434 21.5036 8.22646C21.1628 7.63157 20.7089 7.15537 20.1696 6.65748C19.9372 6.4429 19.679 6.21553 19.4011 5.97083L19.2676 5.85318C18.9358 5.5607 18.5704 5.23662 18.1644 4.86008C18.1516 4.84822 18.1384 4.83681 18.1248 4.82587C17.9223 4.66276 17.6904 4.46735 17.4375 4.25426L17.4374 4.25416C16.8445 3.75449 16.1362 3.15759 15.4202 2.6518C14.4074 1.93632 13.1809 1.25 11.9584 1.25ZM9.0791 15.3857C8.66489 15.3857 8.3291 15.7215 8.3291 16.1357C8.3291 16.55 8.66489 16.8857 9.0791 16.8857H14.8941C15.3083 16.8857 15.6441 16.55 15.6441 16.1357C15.6441 15.7215 15.3083 15.3857 14.8941 15.3857H9.0791Z" fill="#E23E3E"/>
</g>
</g>
</svg>
