<?xml version="1.0" standalone="no"?>
<!DOCTYPE svg PUBLIC "-//W3C//DTD SVG 20010904//EN"
 "http://www.w3.org/TR/2001/REC-SVG-20010904/DTD/svg10.dtd">
<svg version="1.0" xmlns="http://www.w3.org/2000/svg"
 width="700.000000pt" height="700.000000pt" viewBox="0 0 700.000000 700.000000"
 preserveAspectRatio="xMidYMid meet">
<metadata>
Created by potrace 1.14, written by Peter Selinger 2001-2017
</metadata>
<g transform="translate(0.000000,700.000000) scale(0.100000,-0.100000)"
fill="#000000" stroke="none">
<path d="M4597 6700 c-21 -6 -57 -21 -80 -35 -63 -37 -783 -765 -846 -855
-209 -297 -268 -664 -165 -1019 44 -151 147 -329 265 -455 39 -42 70 -79 68
-81 -43 -50 -335 -335 -341 -333 -5 2 -541 535 -1191 1184 -1144 1144 -1184
1182 -1242 1204 -47 17 -73 21 -122 17 -87 -8 -146 -42 -234 -135 -253 -268
-400 -634 -402 -1002 -2 -273 43 -473 158 -705 108 -217 123 -233 968 -1080
l778 -780 -300 -295 c-164 -162 -521 -513 -792 -780 -738 -726 -749 -738 -772
-789 -26 -58 -30 -151 -9 -216 11 -35 32 -66 72 -106 66 -66 120 -88 213 -86
115 3 128 14 618 497 242 239 515 509 607 598 92 90 293 288 448 440 154 153
292 287 305 299 l25 23 154 -153 c167 -165 221 -207 320 -255 205 -97 437
-113 663 -47 162 47 273 120 459 303 80 79 150 144 155 143 4 0 427 -419 938
-930 767 -766 939 -934 980 -953 69 -31 171 -31 240 0 54 25 145 113 145 141
0 9 4 21 10 27 5 5 13 35 16 65 8 74 -17 156 -66 216 -21 27 -643 652 -1382
1391 l-1344 1343 169 169 c94 94 172 170 175 170 2 0 38 -31 79 -70 373 -348
933 -415 1372 -162 134 77 198 134 583 520 414 414 413 413 412 542 -1 115
-52 199 -156 255 -45 25 -64 29 -128 29 -129 0 -127 1 -544 -415 -205 -204
-392 -384 -417 -401 -65 -44 -124 -68 -217 -87 -186 -38 -376 20 -525 160
l-47 45 550 550 c470 469 555 558 580 609 61 122 33 260 -72 350 -48 41 -115
65 -183 66 -60 0 -103 -12 -158 -45 -23 -14 -287 -271 -586 -571 l-545 -545
-45 47 c-174 184 -220 431 -122 655 36 83 83 135 448 502 417 419 418 420 417
546 -1 85 -21 134 -80 199 -60 67 -186 103 -277 81z m-2080 -2631 c790 -790
1436 -1439 1437 -1443 2 -11 -247 -257 -284 -281 -31 -19 -56 -29 -110 -42 -8
-2 -43 -3 -78 -4 -125 0 -57 -61 -1274 1157 -609 610 -1126 1135 -1148 1166
-66 94 -130 234 -145 320 -3 17 -8 34 -10 38 -8 13 -17 118 -16 200 0 124 40
295 91 391 12 21 13 20 56 -22 25 -24 691 -690 1481 -1480z"/>
</g>
</svg>
