<svg width="24" height="24" viewBox="0 0 24 24" fill="none" xmlns="http://www.w3.org/2000/svg">
<path d="M14.5387 14.7603L13.6878 21M9.46191 14.7603L10.3128 21" stroke="black" stroke-width="0.874993" stroke-linecap="round" stroke-linejoin="round"/>
<path d="M6.5258 19.7684L5.65527 14.9805C5.7683 14.9934 5.88324 15 5.99974 15C7.09543 15 8.05394 14.4126 8.57752 13.5355C9.16417 14.841 10.4758 15.75 11.9998 15.75C13.5237 15.75 14.8354 14.841 15.422 13.5355C15.9456 14.4126 16.904 15 17.9998 15C18.1164 15 18.2313 14.9934 18.3442 14.9805L17.4738 19.7684C17.344 20.4816 16.7228 21 15.9979 21H8.00162C7.27668 21 6.65548 20.4816 6.5258 19.7684Z" stroke="black" stroke-width="0.874993" stroke-linecap="round" stroke-linejoin="round"/>
<path d="M6.00002 8.99991C6.00002 5.68618 8.68632 2.99988 12.0001 2.99988C15.3138 2.99988 18.0001 5.68618 18.0001 8.99991C19.657 8.99991 21.0001 10.3431 21.0001 11.9999C21.0001 13.6568 19.657 14.9999 18.0001 14.9999C16.9043 14.9999 15.9459 14.4125 15.4223 13.5355C14.8357 14.8409 13.524 15.75 12.0001 15.75C10.4761 15.75 9.16445 14.8409 8.57781 13.5355C8.05422 14.4125 7.09571 14.9999 6.00002 14.9999C4.34315 14.9999 3 13.6568 3 11.9999C3 10.3431 4.34315 8.99991 6.00002 8.99991Z" stroke="black" stroke-width="0.874993" stroke-linecap="round" stroke-linejoin="round"/>
</svg>
