<svg width="24" height="24" viewBox="0 0 24 24" fill="none" xmlns="http://www.w3.org/2000/svg">
<path d="M17.961 14.3376L20.6667 16.1415C21.386 16.621 21.818 17.4282 21.818 18.2927C21.818 18.9783 21.5456 19.636 21.0607 20.1209L20.9999 20.1817C20.4761 20.7055 19.7654 20.9999 19.0246 20.9999H6.37182C5.26051 20.9999 4.19473 20.5584 3.40892 19.7726C2.6231 18.9869 2.18164 17.9211 2.18164 16.8097V16.1489C2.18164 12.9537 4.77186 10.3635 7.96706 10.3635H10.018C10.884 10.3635 11.7369 10.5353 12.529 10.8643" stroke="black" stroke-width="0.954547" stroke-linecap="round" stroke-linejoin="round"/>
<path d="M17.7275 10.3637L21.0003 7.09094" stroke="black" stroke-width="0.954547" stroke-linecap="round" stroke-linejoin="round"/>
<path d="M17.9611 14.3377L18.173 13.9844C18.8727 12.8182 18.6889 11.3254 17.7272 10.3637C16.7655 9.40197 15.2727 9.21818 14.1065 9.91793L11.8778 11.2551C9.86188 12.4647 9.51938 15.2468 11.1818 16.9091C11.8714 17.5986 12.7536 17.9433 13.6363 17.9667" stroke="black" stroke-width="0.954547" stroke-linecap="round" stroke-linejoin="round"/>
<path d="M20.1816 6.27271L21.818 7.90907" stroke="black" stroke-width="0.954547" stroke-linecap="round" stroke-linejoin="round"/>
<path d="M5.14846 7.50001C6.9212 5.28409 3.37573 5.21592 5.14846 3" stroke="black" stroke-width="0.954547" stroke-linecap="round" stroke-linejoin="round"/>
<path d="M9.6553 7.50001C11.428 5.28409 7.88256 5.21592 9.6553 3" stroke="black" stroke-width="0.954547" stroke-linecap="round" stroke-linejoin="round"/>
</svg>
