<svg width="24" height="24" viewBox="0 0 24 24" fill="none" xmlns="http://www.w3.org/2000/svg">
<path d="M7.07543 20.9219C9.09916 20.9219 10.7397 19.3497 10.7397 17.4103C10.7397 15.4709 9.09916 13.8987 7.07543 13.8987C5.05169 13.8987 3.41113 15.4709 3.41113 17.4103C3.41113 19.3497 5.05169 20.9219 7.07543 20.9219Z" stroke="#000001" stroke-width="0.787862" stroke-linecap="round" stroke-linejoin="round"/>
<path d="M17.3352 19.5172C19.3589 19.5172 20.9995 17.945 20.9995 16.0056C20.9995 14.0662 19.3589 12.494 17.3352 12.494C15.3115 12.494 13.6709 14.0662 13.6709 16.0056C13.6709 17.945 15.3115 19.5172 17.3352 19.5172Z" stroke="#000001" stroke-width="0.787862" stroke-linecap="round" stroke-linejoin="round"/>
<path d="M15.602 12.9127C12.7551 10.457 11.0291 7.02762 10.7961 3.36377C8.48453 6.43623 7.20618 10.1115 7.13184 13.8986" stroke="#000001" stroke-width="0.787862" stroke-linecap="round" stroke-linejoin="round"/>
<path d="M7.0752 3.36377H14.4038" stroke="#000001" stroke-width="0.787862" stroke-linecap="round" stroke-linejoin="round"/>
</svg>
