<svg width="24" height="24" viewBox="0 0 24 24" fill="none" xmlns="http://www.w3.org/2000/svg">
<path d="M9.52238 12.0001C9.52235 9.98755 10.319 8.05682 11.7382 6.62985C13.1573 5.20288 15.0837 4.39571 17.0962 4.38473C15.7346 3.52714 14.1679 3.05029 12.5594 3.00387C10.9509 2.95745 9.35935 3.34314 7.95054 4.12078C6.54172 4.89842 5.36717 6.03956 4.54921 7.42535C3.73125 8.81115 3.2998 10.3909 3.2998 12.0001C3.2998 13.6093 3.73125 15.189 4.54921 16.5748C5.36717 17.9606 6.54172 19.1018 7.95054 19.8794C9.35935 20.657 10.9509 21.0427 12.5594 20.9963C14.1679 20.9499 15.7346 20.473 17.0962 19.6154C15.0837 19.6045 13.1573 18.7973 11.7382 17.3703C10.319 15.9434 9.52235 14.0126 9.52238 12.0001V12.0001Z" stroke="#000001" stroke-width="0.807689" stroke-linecap="round" stroke-linejoin="round"/>
<path d="M16.9437 7.90161L18.2037 10.4078H20.7098L18.8268 12.3462L19.4221 15.1154L16.9437 13.7308L14.576 15.1154L15.0745 12.3462L13.1914 10.4078H15.6975L16.9437 7.90161Z" stroke="#000001" stroke-width="0.807689" stroke-linecap="round" stroke-linejoin="round"/>
</svg>
