<svg width="24" height="24" viewBox="0 0 24 24" fill="none" xmlns="http://www.w3.org/2000/svg">
<path d="M10.8616 4.16393L4.16165 16.7672C4.06859 16.941 4.01098 17.1316 3.99215 17.3278C3.97333 17.5241 3.99367 17.7221 4.05199 17.9104C4.11031 18.0987 4.20545 18.2736 4.33189 18.4249C4.45833 18.5761 4.61355 18.7008 4.78854 18.7916C7.01654 19.9145 9.47677 20.4995 11.9718 20.4995C14.4667 20.4995 16.927 19.9145 19.155 18.7916C19.3344 18.7054 19.4948 18.5841 19.6266 18.4349C19.7584 18.2857 19.8589 18.1116 19.9222 17.9229C19.9856 17.7341 20.0104 17.5346 19.9952 17.3361C19.9801 17.1376 19.9253 16.9442 19.8341 16.7672L13.1341 4.16393C13.0202 3.96293 12.855 3.79574 12.6554 3.67943C12.4558 3.56311 12.2289 3.50183 11.9979 3.50183C11.7668 3.50183 11.54 3.56311 11.3403 3.67943C11.1407 3.79574 10.9755 3.96293 10.8616 4.16393Z" stroke="#000001" stroke-width="0.761856" stroke-linecap="round" stroke-linejoin="round"/>
<path d="M18.8416 14.991C16.7087 16.0262 14.3688 16.5641 11.9979 16.5641C9.6271 16.5641 7.28716 16.0262 5.1543 14.991" stroke="#000001" stroke-width="0.761856" stroke-linecap="round" stroke-linejoin="round"/>
<path d="M10.0391 12.6532V13.3062" stroke="#000001" stroke-width="0.761856" stroke-linecap="round" stroke-linejoin="round"/>
<path d="M13.957 12.6532V13.3062" stroke="#000001" stroke-width="0.761856" stroke-linecap="round" stroke-linejoin="round"/>
<path d="M11.998 8.73499V9.388" stroke="#000001" stroke-width="0.761856" stroke-linecap="round" stroke-linejoin="round"/>
</svg>
