<svg width="24" height="24" viewBox="0 0 24 24" fill="none" xmlns="http://www.w3.org/2000/svg">
<path d="M8.0625 9.375C7.95894 9.375 7.875 9.29106 7.875 9.1875C7.875 9.08394 7.95894 9 8.0625 9" stroke="black" stroke-width="0.875005" stroke-linecap="round" stroke-linejoin="round"/>
<path d="M8.0625 9.375C8.16606 9.375 8.25 9.29106 8.25 9.1875C8.25 9.08394 8.16606 9 8.0625 9" stroke="black" stroke-width="0.875005" stroke-linecap="round" stroke-linejoin="round"/>
<path d="M16.3125 9.375C16.2089 9.375 16.125 9.29106 16.125 9.1875C16.125 9.08394 16.2089 9 16.3125 9" stroke="black" stroke-width="0.875005" stroke-linecap="round" stroke-linejoin="round"/>
<path d="M16.3125 9.375C16.4161 9.375 16.5 9.29106 16.5 9.1875C16.5 9.08394 16.4161 9 16.3125 9" stroke="black" stroke-width="0.875005" stroke-linecap="round" stroke-linejoin="round"/>
<path d="M7.5 14.2499C7.5 14.7424 7.6164 15.23 7.84254 15.685C8.06869 16.1399 8.40016 16.5533 8.81803 16.9016C9.23589 17.2498 9.73197 17.526 10.2779 17.7145C10.8239 17.9029 11.4091 17.9999 12 17.9999C12.591 17.9999 13.1761 17.9029 13.7221 17.7145C14.2681 17.526 14.7642 17.2498 15.182 16.9016C15.5999 16.5533 15.9314 16.1399 16.1575 15.685C16.3837 15.23 16.5001 14.7424 16.5001 14.2499C16.5001 13.7574 16.3837 13.2698 16.1575 12.8148C15.9314 12.3599 15.5999 11.9465 15.182 11.5982C14.7642 11.25 14.2681 10.9738 13.7221 10.7853C13.1761 10.5969 12.591 10.4999 12 10.4999C11.4091 10.4999 10.8239 10.5969 10.2779 10.7853C9.73197 10.9738 9.23589 11.25 8.81803 11.5982C8.40016 11.9465 8.06869 12.3599 7.84254 12.8148C7.6164 13.2698 7.5 13.7574 7.5 14.2499Z" stroke="black" stroke-width="0.875005" stroke-linecap="round" stroke-linejoin="round"/>
<path d="M12.0001 21C16.9706 21 21.0001 17.3064 21.0001 12.7499C21.0001 11.4729 20.6836 10.2637 20.1185 9.18456L19.5001 2.99988L15.3322 5.08381C14.3017 4.70707 13.1772 4.49989 12.0001 4.49989C10.8229 4.49989 9.69845 4.70707 8.66786 5.08381L4.50001 2.99988L3.88154 9.18456C3.31652 10.2637 3 11.4729 3 12.7499C3 17.3064 7.02946 21 12.0001 21Z" stroke="black" stroke-width="0.875005" stroke-linecap="round" stroke-linejoin="round"/>
<path d="M10.5 13.875V14.625" stroke="black" stroke-width="0.875005" stroke-linecap="round" stroke-linejoin="round"/>
<path d="M13.5 13.875V14.625" stroke="black" stroke-width="0.875005" stroke-linecap="round" stroke-linejoin="round"/>
</svg>
