<svg width="24" height="24" viewBox="0 0 24 24" fill="none" xmlns="http://www.w3.org/2000/svg">
<g clip-path="url(#clip0_466_9707)">
<path d="M5.43729 10.5102C5.63582 10.513 5.83321 10.538 6.02508 10.5846C5.87588 10.2592 5.79821 9.91017 5.79649 9.55744C5.82628 8.78084 6.18789 8.04563 6.80413 7.50882C7.42036 6.972 8.24237 6.67613 9.09461 6.68437C9.68535 6.68581 10.2646 6.83332 10.7706 7.1112C11.2767 7.38908 11.6906 7.78692 11.9682 8.26233C12.2459 7.78692 12.6598 7.38908 13.1658 7.1112C13.6718 6.83332 14.2511 6.68581 14.8418 6.68437C15.6884 6.6839 16.5022 6.98323 17.1114 7.51924C17.7206 8.05524 18.0777 8.78602 18.1073 9.55744C18.1056 9.91017 18.0279 10.2592 17.8787 10.5846C18.0811 10.5355 18.2897 10.5105 18.4991 10.5102C19.1487 10.5102 19.7716 10.7454 20.2309 11.1642C20.6902 11.5829 20.9482 12.1509 20.9482 12.7431C20.9482 13.3353 20.6902 13.9033 20.2309 14.3221C19.7716 14.7408 19.1487 14.9761 18.4991 14.9761C18.1255 14.9767 17.7563 14.9023 17.4177 14.7582C17.0791 14.6141 16.7794 14.4039 16.5399 14.1424C16.3625 14.5803 16.0419 14.958 15.6213 15.2242C15.2008 15.4905 14.7007 15.6325 14.1887 15.6311C13.7436 15.6395 13.3039 15.5407 12.914 15.3447C12.5242 15.1487 12.1979 14.8623 11.9682 14.5146C11.7422 14.8508 11.4254 15.1286 11.0481 15.3215C10.6708 15.5143 10.2456 15.6158 9.81301 15.6162C9.30103 15.6176 8.80093 15.4756 8.3804 15.2093C7.95987 14.9431 7.63923 14.5654 7.46188 14.1276C7.22236 14.389 6.92267 14.5993 6.58407 14.7433C6.24547 14.8874 5.87626 14.9618 5.5026 14.9612C4.85306 14.9612 4.23012 14.7259 3.77083 14.3072C3.31153 13.8884 3.05351 13.3204 3.05351 12.7282C3.05351 12.136 3.31153 11.5681 3.77083 11.1493C4.23012 10.7305 4.85306 10.4953 5.5026 10.4953L5.43729 10.5102Z" stroke="#000001" stroke-width="0.894737" stroke-linecap="round" stroke-linejoin="round"/>
</g>
<path d="M12.0007 21C9.39038 21 6.887 20.0573 5.04125 18.3794C3.1955 16.7014 2.15856 14.4256 2.15856 12.0526H21.8428C21.8428 14.4256 20.8058 16.7014 18.9601 18.3794C18.0462 19.2102 16.9612 19.8693 15.7671 20.3189C14.573 20.7685 13.2932 21 12.0007 21V21Z" stroke="#000001" stroke-width="0.894737" stroke-linecap="round" stroke-linejoin="round"/>
<defs>
<clipPath id="clip0_466_9707">
<rect width="19.6842" height="8.05263" fill="white" transform="matrix(-1 0 0 1 21.8428 4)"/>
</clipPath>
</defs>
</svg>
