<svg width="24" height="24" viewBox="0 0 24 24" fill="none" xmlns="http://www.w3.org/2000/svg">
<path d="M21.1287 11.8892C21.1287 16.3952 17.0714 20 11.9999 20C6.92833 20 2.87109 16.3952 2.87109 11.8892H21.1287Z" stroke="black" stroke-width="0.760732" stroke-linecap="round" stroke-linejoin="round"/>
<path d="M9.35434 11.8893C8.95635 11.0874 8.40184 10.3946 7.73145 9.86157" stroke="black" stroke-width="0.760732" stroke-linecap="round" stroke-linejoin="round"/>
<path d="M12.1378 8.94226C12.2202 8.41359 12.1551 7.8696 11.9512 7.38319C11.684 6.73777 11.1988 6.23508 10.6005 5.9838C10.0023 5.73253 9.33898 5.75286 8.7541 6.0404C8.62143 5.71553 8.43245 5.42287 8.19794 5.17912C7.96343 4.93537 7.68799 4.74531 7.38735 4.61978C7.0867 4.49426 6.76674 4.43573 6.44573 4.44753C6.12471 4.45934 5.80894 4.54125 5.51643 4.6886C5.22392 4.83594 4.9604 5.04582 4.74093 5.30627C4.52146 5.56672 4.35032 5.87262 4.2373 6.20652C4.12427 6.54042 4.07157 6.89578 4.0822 7.2523C4.09283 7.60882 4.16659 7.95952 4.29926 8.28439C4.00684 8.43284 3.74381 8.64415 3.52533 8.90612C3.30686 9.16809 3.13727 9.47553 3.02637 9.81069C2.91546 10.1458 2.86544 10.5021 2.87918 10.8588C2.89292 11.2156 2.97016 11.5658 3.10643 11.8892" stroke="black" stroke-width="0.760732" stroke-linecap="round" stroke-linejoin="round"/>
<path d="M19.7143 11.8893C19.7568 11.667 19.7785 11.4405 19.7792 11.2134C19.7792 10.3171 19.4586 9.45748 18.888 8.8237C18.3173 8.18992 17.5433 7.83386 16.7363 7.83386C15.9293 7.83386 15.1553 8.18992 14.5846 8.8237C14.014 9.45748 13.6934 10.3171 13.6934 11.2134C13.6954 11.44 13.7144 11.6661 13.7502 11.8893" stroke="black" stroke-width="0.760732" stroke-linecap="round" stroke-linejoin="round"/>
</svg>
