<svg width="24" height="24" viewBox="0 0 24 24" fill="none" xmlns="http://www.w3.org/2000/svg">
<path d="M20.9236 19.1835L13.5011 5.90058C13.3662 5.65921 13.1647 5.51894 12.9464 5.51319L11.9491 3.7283C11.8113 3.48176 11.604 3.34033 11.3804 3.34033H11.3804C11.1568 3.34033 10.9494 3.48176 10.8117 3.7283L3.38914 17.0112C3.27676 17.2123 3.28923 17.4991 3.41823 17.6796L4.9647 19.8441C4.96487 19.8439 4.96501 19.8437 4.96522 19.8435C5.03224 19.9415 5.12555 20 5.2256 20H20.6393C20.7773 20 20.9033 19.8898 20.9638 19.7161C21.0243 19.5424 21.0087 19.3357 20.9236 19.1835ZM11.3804 4.35083L11.678 4.88346C11.6737 4.88569 11.6693 4.88743 11.6649 4.88975C11.3322 5.06662 11.0986 5.46784 11.04 5.96305L10.9862 6.41804C10.9708 6.54752 10.909 6.65849 10.8247 6.70751L9.86273 7.26815C9.79049 7.31021 9.72344 7.36379 9.66181 7.42621L11.3804 4.35083ZM9.3275 8.02451C9.29983 8.12005 9.279 8.22052 9.26656 8.32535L9.09435 9.78086C9.07901 9.91035 9.01717 10.0213 8.93291 10.0703L7.9737 10.6293C7.91086 10.6659 7.85189 10.7111 7.79696 10.7634L9.3275 8.02451ZM7.42703 11.4254C7.40496 11.5089 7.38831 11.5963 7.37763 11.6865L7.2059 13.1377C7.19056 13.2672 7.12873 13.3781 7.0445 13.4272L6.08238 13.9878C6.0306 14.018 5.98158 14.0544 5.93508 14.0953L7.42703 11.4254ZM4.36529 17.5762L4.15466 17.2815L5.52477 14.8296C5.50829 14.8992 5.49506 14.971 5.48628 15.045L5.31407 16.5005C5.29873 16.63 5.23686 16.741 5.15263 16.79L4.85153 16.9655C4.63976 17.089 4.47121 17.305 4.36529 17.5762ZM5.19247 18.7339L5.04454 18.5269C4.95658 18.4068 4.96042 18.2575 4.96677 18.1959C4.97348 18.131 5.00267 17.972 5.12907 17.8984L5.43015 17.7229C5.7469 17.5383 5.96976 17.1431 6.02628 16.6657L6.19849 15.2102C6.21383 15.0807 6.2757 14.9697 6.35993 14.9207L7.32205 14.3601C7.6388 14.1755 7.86163 13.7803 7.91815 13.3029L8.08991 11.8516C8.10521 11.7222 8.16705 11.6113 8.25128 11.5622L9.21049 11.0032C9.52728 10.8186 9.75014 10.4234 9.80663 9.94603L9.97884 8.49051C9.99418 8.36103 10.056 8.25011 10.1403 8.20108L11.1024 7.64045C11.4191 7.45585 11.642 7.06062 11.6986 6.58325L11.7524 6.12822C11.7756 5.93181 11.8783 5.8574 11.9214 5.83448C11.9628 5.81248 12.0704 5.77404 12.1747 5.89231C12.2103 5.93264 12.3052 6.00574 12.3052 6.00574L5.19247 18.7339ZM5.9662 18.9896L6.47355 18.0816H11.9398C12.1391 18.0816 12.3008 17.8554 12.3008 17.5764C12.3008 17.2974 12.1391 17.0712 11.9398 17.0712H7.03818L12.9325 6.5231L19.8987 18.9896H5.9662Z" fill="black"/>
</svg>
