<svg width="24" height="24" viewBox="0 0 24 24" fill="none" xmlns="http://www.w3.org/2000/svg">
<path d="M13.7033 17.629C15.2253 17.0956 16.5132 16.0476 17.3449 14.6658C17.7794 15.2817 18.3796 15.7618 19.0758 16.0505C19.2862 16.1396 19.5154 16.1753 19.743 16.1543C19.9706 16.1333 20.1894 16.0563 20.38 15.9301C20.5706 15.804 20.727 15.6327 20.8352 15.4314C20.9435 15.2301 21.0002 15.0052 21.0004 14.7766V11.1627C21.0002 10.9341 20.9435 10.7092 20.8352 10.5079C20.727 10.3067 20.5706 10.1353 20.38 10.0092C20.1894 9.88303 19.9706 9.80603 19.743 9.78503C19.5154 9.76403 19.2862 9.79968 19.0758 9.88881C18.3776 10.1742 17.7766 10.655 17.3449 11.2735C15.9603 9.11341 12.1941 7.43799 8.41397 7.43799C6.96675 7.47056 5.5898 8.06843 4.57791 9.10361C3.56602 10.1388 2.99963 11.529 3 12.9766C3.08935 14.4238 3.74267 15.7783 4.81967 16.7491C5.89666 17.72 7.31142 18.2298 8.76013 18.169C9.17553 18.169 9.84016 18.169 10.2556 18.169" stroke="#000001" stroke-linecap="round" stroke-linejoin="round"/>
<path d="M7.84662 12.2704C8.22898 12.2704 8.53894 11.9604 8.53894 11.5781C8.53894 11.1957 8.22898 10.8857 7.84662 10.8857C7.46426 10.8857 7.1543 11.1957 7.1543 11.5781C7.1543 11.9604 7.46426 12.2704 7.84662 12.2704Z" stroke="#000001" stroke-linecap="round" stroke-linejoin="round"/>
<path d="M6.78027 7.67333C7.84645 6.02559 10.3527 4.17017 15.9051 4.80711C15.3169 6.40235 15.3169 8.15505 15.9051 9.7503" stroke="#000001" stroke-linecap="round" stroke-linejoin="round"/>
<path d="M8.73242 15.5105C8.98106 16.7407 9.69728 17.8265 10.7303 18.5393C11.7634 19.2521 13.0326 19.5363 14.271 19.3321L12.8725 14.7766" stroke="#000001" stroke-linecap="round" stroke-linejoin="round"/>
</svg>
