<svg width="24" height="24" viewBox="0 0 24 24" fill="none" xmlns="http://www.w3.org/2000/svg">
<path d="M8.62078 7.15393H15.5438L18.3131 9.92315V18.2308C18.3131 19.7603 17.0733 21 15.5438 21H8.62078C7.09138 21 5.85156 19.7603 5.85156 18.2308V9.92315L8.62078 7.15393Z" stroke="black" stroke-width="0.807689" stroke-linecap="round" stroke-linejoin="round"/>
<path d="M6.54395 7.15393H17.6208" stroke="black" stroke-width="0.807689" stroke-linecap="round" stroke-linejoin="round"/>
<path d="M10.6979 7.15386L7.92871 4.38464" stroke="black" stroke-width="0.807689" stroke-linecap="round" stroke-linejoin="round"/>
<path d="M15.1977 5.07695C15.0065 5.07695 14.8516 4.92197 14.8516 4.7308C14.8516 4.53962 15.0065 4.38464 15.1977 4.38464" stroke="black" stroke-width="0.807689" stroke-linecap="round" stroke-linejoin="round"/>
<path d="M15.1973 5.07695C15.3884 5.07695 15.5434 4.92197 15.5434 4.7308C15.5434 4.53962 15.3884 4.38464 15.1973 4.38464" stroke="black" stroke-width="0.807689" stroke-linecap="round" stroke-linejoin="round"/>
<path d="M18.6596 3.69243C18.4684 3.69243 18.3135 3.53745 18.3135 3.34627C18.3135 3.1551 18.4684 3.00012 18.6596 3.00012" stroke="black" stroke-width="0.807689" stroke-linecap="round" stroke-linejoin="round"/>
<path d="M18.6592 3.69243C18.8504 3.69243 19.0053 3.53745 19.0053 3.34627C19.0053 3.1551 18.8504 3.00012 18.6592 3.00012" stroke="black" stroke-width="0.807689" stroke-linecap="round" stroke-linejoin="round"/>
</svg>
