<svg width="24" height="24" viewBox="0 0 24 24" fill="none" xmlns="http://www.w3.org/2000/svg">
<path d="M18.9889 3.09785C18.9603 3.05772 18.9199 3.02754 18.8733 3.01155C18.8267 2.99556 18.7762 2.99456 18.729 3.00869C11.6917 5.0972 7.30332 8.08687 5.69047 11.8949C4.34111 15.0792 5.43851 17.6959 5.66618 18.1783C5.08823 19.7399 4.97081 20.7127 4.96802 20.7385C4.96166 20.8011 4.98024 20.8637 5.01974 20.9127C5.05924 20.9616 5.11647 20.993 5.17899 21H5.20406C5.26256 20.9997 5.31891 20.978 5.36242 20.9388C5.40593 20.8997 5.43357 20.846 5.4401 20.7879C5.44289 20.7632 5.55473 19.8565 6.0901 18.3929C6.46306 18.4176 6.83164 18.4363 7.18749 18.4363C12.3907 18.4375 15.7019 15.8212 16.3452 11.1263C17.0155 6.23559 18.971 3.40235 18.9905 3.3729C19.0187 3.33248 19.0336 3.28436 19.0333 3.23512C19.033 3.18589 19.0175 3.13794 18.9889 3.09785ZM15.8755 11.0622C14.9779 17.6 9.10444 18.0932 6.26563 17.9347C7.31924 15.2814 9.67444 11.1283 14.8688 7.00182C14.9111 6.96052 14.9366 6.90503 14.9403 6.84605C14.944 6.78708 14.9257 6.72882 14.889 6.68253C14.8523 6.63625 14.7997 6.60522 14.7414 6.59545C14.6831 6.58569 14.6233 6.59787 14.5735 6.62965C9.45591 10.6964 7.0438 14.8046 5.91974 17.5327C5.31068 15.7521 5.38473 13.8087 6.12751 12.0796C7.63807 8.51675 11.7215 5.68112 18.2617 3.64635C17.6523 4.70235 16.3981 7.25218 15.8755 11.0622Z" fill="black"/>
</svg>
