<svg width="24" height="24" viewBox="0 0 24 24" fill="none" xmlns="http://www.w3.org/2000/svg">
<g id="Icon/Nav/Profile/Inactive">
<path id="Union" fill-rule="evenodd" clip-rule="evenodd" d="M11.8372 1.65002C9.00073 1.65002 6.70066 3.94967 6.69998 6.78603L6.69998 6.7873H7.44998L6.69998 6.78476L6.69998 6.78603C6.69108 9.61412 8.97538 11.9141 11.8038 11.9237L11.8064 11.9237H11.8372C14.6742 11.9237 16.9736 9.62424 16.9736 6.7873C16.9736 3.95056 14.6744 1.65002 11.8372 1.65002ZM8.19998 6.7873C8.19998 4.77878 9.82874 3.15002 11.8372 3.15002C13.8456 3.15002 15.4736 4.77858 15.4736 6.7873C15.4736 8.79581 13.8449 10.4237 11.8364 10.4237H11.8076C9.80792 10.4162 8.1932 8.78981 8.19998 6.78984V6.7873ZM5.75 18.7867C5.75 17.9894 6.30533 17.0845 7.44188 16.3385C8.55835 15.6057 10.1244 15.1119 11.8445 15.1119C13.5556 15.1119 15.1226 15.6011 16.2421 16.3298C17.3822 17.0719 17.9391 17.9717 17.9391 18.7661C17.9391 19.1512 17.8152 19.4377 17.5916 19.6789C17.3521 19.9372 16.9676 20.1737 16.411 20.3685C15.2884 20.7614 13.6825 20.9119 11.8445 20.9119C10.0152 20.9119 8.40853 20.7667 7.28249 20.3781C6.72404 20.1854 6.3382 19.9508 6.09786 19.694C5.87403 19.4549 5.75 19.1706 5.75 18.7867ZM11.8445 13.6119C9.85282 13.6119 7.99665 14.1801 6.6188 15.0845C5.26103 15.9757 4.25 17.2831 4.25 18.7867C4.25 19.5531 4.52006 20.2034 5.00274 20.7191C5.4689 21.2171 6.10198 21.5575 6.79319 21.7961C8.16647 22.2699 9.98208 22.4119 11.8445 22.4119C13.7184 22.4119 15.5348 22.2644 16.9065 21.7843C17.597 21.5427 18.2278 21.1989 18.6916 20.6987C19.1714 20.1813 19.4391 19.5308 19.4391 18.7661C19.4391 17.2597 18.4196 15.9574 17.0604 15.0726C15.6806 14.1745 13.8253 13.6119 11.8445 13.6119Z" fill="#C1C1C1"/>
</g>
</svg>
