<svg width="24" height="24" viewBox="0 0 24 24" fill="none" xmlns="http://www.w3.org/2000/svg">
<path d="M16.8461 7.09091C16.8461 6.55369 16.7566 6.02173 16.5827 5.52538C16.4087 5.02906 16.1537 4.57808 15.8323 4.19819C15.5109 3.81833 15.1293 3.51699 14.7093 3.3114C14.2893 3.10581 13.8392 3 13.3846 3H6.46154C5.73502 3 5.02692 3.27015 4.43753 3.77218C3.84816 4.27424 3.40738 4.9827 3.17763 5.79725C2.94789 6.6118 2.94083 7.49113 3.15745 8.31069C3.37408 9.13024 3.80341 9.84848 4.38461 10.3636V19.3636C4.38461 19.7976 4.5305 20.2139 4.79015 20.5207C5.04982 20.8275 5.402 21 5.76923 21H14.0769C14.4441 21 14.7963 20.8275 15.056 20.5207C15.3156 20.2139 15.4615 19.7976 15.4615 19.3636V10.3636C15.8922 9.98346 16.2418 9.48954 16.4821 8.92128C16.7226 8.35304 16.8473 7.72623 16.8461 7.09091Z" stroke="black" stroke-width="0.75" stroke-linecap="round" stroke-linejoin="round"/>
<path d="M9.23039 3H17.5381C17.9927 3 18.4428 3.10581 18.8627 3.3114C19.2827 3.51699 19.6643 3.81833 19.9858 4.19819C20.3072 4.57808 20.5622 5.02906 20.7361 5.52538C20.91 6.02173 20.9996 6.55369 20.9996 7.09091C21.0007 7.72623 20.8761 8.35304 20.6356 8.92128C20.3952 9.48954 20.0458 9.98346 19.615 10.3636V19.3636C19.615 19.7976 19.4691 20.2139 19.2094 20.5207C18.9498 20.8275 18.5976 21 18.2304 21H8.53809" stroke="black" stroke-width="0.75" stroke-linecap="round" stroke-linejoin="round"/>
<path d="M19.6148 10.3636H15.4609" stroke="black" stroke-width="0.75" stroke-linecap="round" stroke-linejoin="round"/>
</svg>
