<svg width="24" height="24" viewBox="0 0 24 24" fill="none" xmlns="http://www.w3.org/2000/svg">
<path d="M15.4622 8.46918C15.2383 8.51468 15.0065 8.53856 14.7692 8.53856C12.8574 8.53856 11.3077 6.98878 11.3077 5.07704C11.3077 4.29778 11.5652 3.57865 11.9997 3.00012C7.02928 3.00026 3 7.02963 3 12.0001C3 16.9707 7.02942 21.0001 12 21.0001C16.9706 21.0001 20.9999 16.9707 20.9999 12.0001C20.9999 11.7735 20.9916 11.5489 20.9751 11.3265C20.4009 11.7499 19.6912 12.0001 18.923 12.0001C17.0113 12.0001 15.4615 10.4503 15.4615 8.53856C15.4615 8.51538 15.4617 8.49226 15.4622 8.46918Z" stroke="black" stroke-width="0.807689" stroke-linecap="round" stroke-linejoin="round"/>
<path d="M7.50045 10.6154C7.30928 10.6154 7.1543 10.4604 7.1543 10.2692C7.1543 10.0781 7.30928 9.9231 7.50045 9.9231" stroke="black" stroke-width="0.807689" stroke-linecap="round" stroke-linejoin="round"/>
<path d="M7.5 10.6154C7.69117 10.6154 7.84615 10.4604 7.84615 10.2692C7.84615 10.0781 7.69117 9.9231 7.5 9.9231" stroke="black" stroke-width="0.807689" stroke-linecap="round" stroke-linejoin="round"/>
<path d="M9.57662 15.4616C9.38545 15.4616 9.23047 15.3066 9.23047 15.1154C9.23047 14.9243 9.38545 14.7693 9.57662 14.7693" stroke="black" stroke-width="0.807689" stroke-linecap="round" stroke-linejoin="round"/>
<path d="M9.57617 15.4616C9.76734 15.4616 9.92232 15.3066 9.92232 15.1154C9.92232 14.9243 9.76734 14.7693 9.57617 14.7693" stroke="black" stroke-width="0.807689" stroke-linecap="round" stroke-linejoin="round"/>
<path d="M15.1157 15.4616C14.9245 15.4616 14.7695 15.3066 14.7695 15.1154C14.7695 14.9243 14.9245 14.7693 15.1157 14.7693" stroke="black" stroke-width="0.807689" stroke-linecap="round" stroke-linejoin="round"/>
<path d="M15.1152 15.4616C15.3064 15.4616 15.4614 15.3066 15.4614 15.1154C15.4614 14.9243 15.3064 14.7693 15.1152 14.7693" stroke="black" stroke-width="0.807689" stroke-linecap="round" stroke-linejoin="round"/>
</svg>
