<svg width="24" height="24" viewBox="0 0 24 24" fill="none" xmlns="http://www.w3.org/2000/svg">
<path d="M4.75488 8.36203C4.75488 9.10687 5.05077 9.82121 5.57746 10.3479C6.10414 10.8746 6.81848 11.1705 7.56332 11.1705C8.30817 11.1705 9.02251 10.8746 9.54919 10.3479C10.0759 9.82121 10.3718 9.10687 10.3718 8.36203C10.3718 7.61718 10.0759 6.90285 9.54919 6.37616C9.02251 5.84948 8.30817 5.55359 7.56332 5.55359C6.81848 5.55359 6.10414 5.84948 5.57746 6.37616C5.05077 6.90285 4.75488 7.61718 4.75488 8.36203Z" stroke="black" stroke-width="0.784998" stroke-linecap="round" stroke-linejoin="round"/>
<path d="M7.56348 5.5536C7.56348 4.3903 8.50651 3.44727 9.66981 3.44727" stroke="black" stroke-width="0.784998" stroke-linecap="round" stroke-linejoin="round"/>
<path d="M3.35059 19.5957V12.5746C3.35059 11.7991 3.97928 11.1704 4.75481 11.1704H18.797C19.5726 11.1704 20.2012 11.7991 20.2012 12.5746V19.5957C20.2012 20.3713 19.5726 21 18.797 21H4.75481C3.97928 21 3.35059 20.3713 3.35059 19.5957Z" stroke="black" stroke-width="0.784998" stroke-linecap="round" stroke-linejoin="round"/>
<path d="M3.35059 15.3831H20.2012" stroke="black" stroke-width="0.784998" stroke-linecap="round" stroke-linejoin="round"/>
</svg>
