<svg width="24" height="24" viewBox="0 0 24 24" fill="none" xmlns="http://www.w3.org/2000/svg">
<path d="M7.84615 3.00012H16.1538C17.4391 3.00012 18.6718 3.5107 19.5806 4.41953C20.4894 5.32836 21 6.561 21 7.84628C21 8.2135 20.8541 8.56568 20.5945 8.82535C20.3348 9.08501 19.9826 9.23089 19.6154 9.23089H4.38462C4.01739 9.23089 3.66521 9.08501 3.40554 8.82535C3.14588 8.56568 3 8.2135 3 7.84628C3 6.561 3.51058 5.32836 4.41941 4.41953C5.32824 3.5107 6.56087 3.00012 7.84615 3.00012V3.00012Z" stroke="#000001" stroke-width="0.677193" stroke-linecap="round" stroke-linejoin="round"/>
<path d="M3 12.6925H21" stroke="#000001" stroke-width="0.677193" stroke-linecap="round" stroke-linejoin="round"/>
<path d="M20.3077 16.1539H12L9.92308 18.2309L5.76923 16.1539H3.69231C3.5087 16.1539 3.3326 16.2269 3.20277 16.3567C3.07294 16.4865 3 16.6626 3 16.8462V16.8462C3 17.9479 3.43764 19.0045 4.21663 19.7835C4.99563 20.5624 6.05218 21.0001 7.15385 21.0001H16.8462C17.9478 21.0001 19.0044 20.5624 19.7834 19.7835C20.5624 19.0045 21 17.9479 21 16.8462C21 16.6626 20.9271 16.4865 20.7972 16.3567C20.6674 16.2269 20.4913 16.1539 20.3077 16.1539Z" stroke="#000001" stroke-width="0.677193" stroke-linecap="round" stroke-linejoin="round"/>
</svg>
