<svg width="24" height="24" viewBox="0 0 24 24" fill="none" xmlns="http://www.w3.org/2000/svg">
<path d="M6.24512 10.0051V8.80302C6.24512 8.12471 6.51458 7.47417 6.99422 6.99452C7.47387 6.51488 8.1244 6.24542 8.80272 6.24542H16.5395C16.8419 6.23124 17.138 6.3355 17.3648 6.53606C17.5917 6.73663 17.7314 7.0177 17.7543 7.31961V12.2046C17.7314 12.5066 17.5917 12.7876 17.3648 12.9882C17.138 13.1888 16.8419 13.293 16.5395 13.2788H14.3016" stroke="#000001" stroke-width="0.745968" stroke-linecap="round" stroke-linejoin="round"/>
<path d="M20.3119 14.8646V18.5475C20.3119 19.0156 20.126 19.4644 19.7951 19.7954C19.4641 20.1263 19.0152 20.3123 18.5472 20.3123H11.7312C11.3471 20.3132 10.9733 20.1888 10.6663 19.958C10.3594 19.7273 10.1361 19.4026 10.0304 19.0335C9.9271 18.6653 9.70622 18.341 9.40144 18.1101C9.09666 17.8792 8.72471 17.7544 8.34234 17.7547H7.62621C6.5816 17.7547 5.57977 17.3397 4.84112 16.601C4.10247 15.8624 3.6875 14.8606 3.6875 13.8159V8.87976" stroke="#000001" stroke-width="0.745968" stroke-linecap="round" stroke-linejoin="round"/>
<path d="M17.7543 3.68787C18.4327 3.68787 19.0832 3.95733 19.5628 4.43697C20.0425 4.91662 20.3119 5.56715 20.3119 6.24547V14.8646C20.3119 15.3326 20.126 15.7815 19.7951 16.1125C19.4641 16.4434 19.0152 16.6294 18.5472 16.6294H13.2785C12.8945 16.6303 12.5206 16.5059 12.2137 16.2751C11.9067 16.0443 11.6835 15.7197 11.5777 15.3506V15.3506C11.4744 14.9824 11.2536 14.6581 10.9488 14.4272C10.644 14.1963 10.2721 14.0715 9.88969 14.0717H8.87944C7.50245 14.0717 6.18186 13.5247 5.20818 12.5511C4.23451 11.5774 3.6875 10.2568 3.6875 8.87981C3.6875 7.50282 4.23451 6.18223 5.20818 5.20855C6.18186 4.23487 7.50245 3.68787 8.87944 3.68787H17.7543Z" stroke="#000001" stroke-width="0.745968" stroke-linecap="round" stroke-linejoin="round"/>
<path d="M9.86401 10.2609C10.2171 10.2609 10.5034 9.97459 10.5034 9.62146C10.5034 9.26833 10.2171 8.98206 9.86401 8.98206C9.51088 8.98206 9.22461 9.26833 9.22461 9.62146C9.22461 9.97459 9.51088 10.2609 9.86401 10.2609Z" stroke="#000001" stroke-width="0.745968" stroke-linecap="round" stroke-linejoin="round"/>
</svg>
