<svg width="24" height="24" viewBox="0 0 24 24" fill="none" xmlns="http://www.w3.org/2000/svg">
<path d="M10.8117 9.24955C10.9651 9.30043 11.1314 9.21714 11.1819 9.06403L12.4648 5.20514C12.5156 5.052 12.4324 4.88603 12.279 4.83516C12.1255 4.78404 11.9595 4.86701 11.9087 5.02068L10.6264 8.87901C10.5753 9.03275 10.6583 9.19872 10.8117 9.24955Z" fill="black"/>
<path d="M11.8278 9.55071C11.981 9.60154 12.147 9.51829 12.1978 9.36515L13.3762 5.82034C13.4273 5.66664 13.3443 5.50123 13.1906 5.45039C13.0373 5.39896 12.8716 5.48224 12.8207 5.63539L11.642 9.18016C11.5909 9.33386 11.6741 9.49955 11.8278 9.55071Z" fill="black"/>
<path d="M7.92107 5.90928C8.18429 6.03415 8.25105 6.30774 8.3254 6.56565C8.45896 7.02475 8.8306 7.78423 9.59929 8.13464C9.81501 8.23329 10.1 8.33974 10.4004 8.44341L10.6606 7.66077L10.156 7.42044C9.96622 7.33019 9.92206 7.19023 9.99304 7.04043C10.0579 6.9041 10.1758 6.79564 10.3714 6.87977L10.8453 7.10498L11.0666 6.43937L10.6704 6.25131C10.4963 6.17309 10.491 5.99313 10.5561 5.85647C10.6271 5.70755 10.7639 5.65278 10.9534 5.74278L11.251 5.88418L11.5248 5.06043C11.3927 4.98442 11.2675 4.91513 11.1563 4.86008C10.3993 4.48594 9.57525 4.67649 9.13544 4.86261C8.88843 4.96737 8.63418 5.08866 8.37065 4.96319L4.80826 3.06359C4.66208 2.9912 4.49277 2.97974 4.33826 3.03371C4.18399 3.08679 4.05799 3.19993 3.98758 3.34723L3.94483 3.43748C3.87469 3.58499 3.86657 3.75434 3.92275 3.90801C3.97865 4.06115 4.09378 4.1855 4.24271 4.25338L7.92107 5.90928Z" fill="black"/>
<path d="M12.8743 9.95089C13.0283 10.0023 13.194 9.91876 13.2448 9.76533L14.3673 6.38928C14.4184 6.23617 14.3351 6.0702 14.1818 6.01876C14.0283 5.96793 13.8621 6.05061 13.8113 6.20432L12.6888 9.58062C12.6379 9.73404 12.7209 9.90002 12.8743 9.95089Z" fill="black"/>
<path d="M11.096 14.3659C11.3964 14.1521 11.8099 13.9356 12.3489 13.7403C12.5015 13.6852 12.5797 13.5178 12.525 13.3656C12.4699 13.2135 12.3023 13.1345 12.15 13.1895C11.3776 13.4695 10.8171 13.797 10.436 14.1474C10.2457 14.3223 10.1001 14.5042 9.99952 14.6917C9.8995 14.8789 9.84473 15.074 9.84473 15.2668C9.84417 15.4741 9.91096 15.6753 10.0308 15.8396C10.151 16.0042 10.3195 16.1316 10.5173 16.2219C10.7711 16.3364 11.06 16.3806 11.3685 16.3806C11.7672 16.3806 12.2026 16.3052 12.644 16.176C13.0853 16.0466 13.5321 15.8634 13.9487 15.6407C14.0909 15.5644 14.1448 15.3869 14.0688 15.2444C13.9923 15.1019 13.8149 15.048 13.6723 15.1243C13.292 15.3279 12.8793 15.497 12.4794 15.6138C12.0796 15.7312 11.692 15.7955 11.3684 15.7949C11.1178 15.7954 10.9071 15.7563 10.7596 15.6881C10.6369 15.6328 10.5547 15.5635 10.5048 15.4948C10.4544 15.4243 10.4312 15.3548 10.4307 15.2667C10.4307 15.1854 10.4536 15.0854 10.5162 14.9678C10.61 14.7917 10.7953 14.5802 11.096 14.3659Z" fill="black"/>
<path d="M9.77886 13.4046C9.44664 13.5929 9.19095 13.9003 9.01158 14.2543C8.8333 14.6097 8.73131 15.0158 8.73047 15.4226C8.73047 15.7244 8.78777 16.0275 8.92158 16.3045C9.05405 16.5811 9.26723 16.8293 9.56037 17.0036C10.1715 17.3691 10.851 17.5021 11.5086 17.5021C12.2616 17.5021 12.9912 17.33 13.5984 17.116C13.9018 17.0084 14.1745 16.8905 14.4048 16.7759C14.6354 16.6611 14.8212 16.5515 14.9584 16.4537C15.0903 16.3598 15.1207 16.1768 15.0266 16.0452C14.9324 15.9138 14.7499 15.8831 14.618 15.977C14.5174 16.0491 14.3517 16.148 14.1436 16.252C13.5179 16.5644 12.5019 16.9181 11.5086 16.9164C10.9282 16.9162 10.3598 16.7991 9.86081 16.5009C9.66854 16.3855 9.53832 16.233 9.44892 16.0499C9.36033 15.8663 9.31645 15.6506 9.31645 15.4226C9.31617 15.1158 9.39721 14.7908 9.53499 14.5178C9.67216 14.2437 9.86581 14.0266 10.0659 13.9156C10.207 13.8366 10.2567 13.6577 10.1777 13.5169C10.0986 13.3761 9.91998 13.3258 9.77886 13.4046Z" fill="black"/>
<path d="M9.77029 18.3396C10.4172 18.5517 11.1294 18.6526 11.8534 18.6526C13.055 18.6517 14.2906 18.3762 15.3144 17.8419C15.8084 17.584 16.1678 17.2585 16.4036 16.9058C16.6394 16.5535 16.7504 16.1752 16.7504 15.82C16.7504 15.4495 16.6297 15.1019 16.4033 14.8415C16.1786 14.5805 15.8403 14.4145 15.4597 14.4159C15.2351 14.4159 14.9992 14.4715 14.7614 14.5832C14.615 14.6517 14.5519 14.8264 14.6206 14.9725C14.6894 15.1192 14.8637 15.1823 15.0104 15.1136V15.1133C15.182 15.0331 15.3318 15.0021 15.4597 15.0018C15.6755 15.0035 15.8364 15.0854 15.9613 15.2262C16.0848 15.3679 16.1645 15.5758 16.1645 15.82C16.1645 16.0539 16.0921 16.3177 15.9166 16.5801C15.7414 16.8424 15.4617 17.1037 15.0431 17.3228C14.1194 17.8068 12.9648 18.0672 11.8535 18.0666C11.1837 18.0666 10.5301 17.9727 9.9531 17.783C9.37524 17.5938 8.87563 17.3094 8.50178 16.9361C8.38777 16.8215 8.20193 16.8215 8.08767 16.9361C7.97338 17.0504 7.97338 17.2356 8.08767 17.3502C8.54133 17.8034 9.12398 18.1278 9.77029 18.3396Z" fill="black"/>
<path d="M8.63238 14.3231C8.74635 14.2085 8.74635 14.0232 8.63238 13.9089C8.5178 13.7944 8.33228 13.7944 8.21771 13.9089C8.00311 14.1255 7.83823 14.4189 7.71557 14.7385C7.59456 15.0588 7.51968 15.403 7.51855 15.7272C7.51968 15.9384 7.55016 16.1433 7.64262 16.3299C7.71416 16.4747 7.89019 16.5336 8.03493 16.461C8.17995 16.3889 8.23863 16.2134 8.16627 16.0686C8.13052 15.9988 8.10426 15.8773 8.10479 15.7272C8.10422 15.4975 8.16346 15.208 8.26348 14.9465C8.3616 14.6852 8.503 14.4502 8.63238 14.3231Z" fill="black"/>
<path d="M19.4885 14.2692C18.8841 13.394 17.8922 12.682 16.6219 12.1833C16.3411 12.0726 16.0441 11.9745 15.7361 11.886V11.8977C15.7361 12.1319 15.7087 12.3602 15.6601 12.5832C16.3352 12.7866 16.9348 13.0448 17.4429 13.3466C18.0883 13.7291 18.5868 14.1781 18.9194 14.661C19.2524 15.1453 19.4229 15.6586 19.4232 16.1996C19.4229 16.7394 19.2525 17.253 18.9194 17.7372C18.4214 18.4618 17.546 19.1106 16.3693 19.572C15.1935 20.0336 13.7211 20.3088 12.0493 20.3088C9.81894 20.3099 7.96522 19.8184 6.69523 19.0531C6.05982 18.6714 5.57139 18.2226 5.24531 17.7398C4.91949 17.2558 4.75239 16.7416 4.75158 16.1996C4.75242 15.6569 4.91952 15.1419 5.24531 14.6582C5.73346 13.9345 6.59131 13.2868 7.754 12.8263C8.9156 12.365 10.3767 12.0898 12.0494 12.0898C12.5979 12.0898 13.1257 12.1196 13.6279 12.1753C13.6502 12.0875 13.6622 11.9953 13.6622 11.8967V11.4867C13.1453 11.4309 12.6085 11.3984 12.0494 11.3984C9.71839 11.399 7.75038 11.905 6.33927 12.7526C5.63372 13.1773 5.06647 13.6881 4.67279 14.271C4.27848 14.8539 4.06002 15.5113 4.06055 16.1996C4.05999 16.887 4.27848 17.545 4.67279 18.1271C5.26518 19.0017 6.24178 19.715 7.49866 20.215C8.75687 20.7139 10.301 21 12.0493 21C14.3795 20.9995 16.3656 20.4932 17.7955 19.6471C18.51 19.2232 19.0864 18.7124 19.4885 18.1295C19.8909 17.5472 20.1153 16.8891 20.1147 16.1995C20.1153 15.5093 19.8909 14.8507 19.4885 14.2692Z" fill="black"/>
<path d="M14.2519 7.67075V12.3585C14.2511 12.6183 14.1933 12.8463 14.0831 13.0609C13.9177 13.3817 13.6246 13.6773 13.2116 13.9461C12.7998 14.2152 12.2722 14.455 11.6641 14.6699C11.5116 14.7235 11.4317 14.8906 11.4856 15.0437C11.5392 15.196 11.7066 15.2762 11.8592 15.2223C12.7078 14.9219 13.4332 14.5712 13.9669 14.1122C14.2332 13.8824 14.4517 13.6234 14.6035 13.3297C14.7558 13.0363 14.8379 12.7089 14.8376 12.3585V7.67075C14.8376 7.50868 14.7063 7.37793 14.5448 7.37793C14.383 7.37793 14.2519 7.50871 14.2519 7.67075Z" fill="black"/>
</svg>
