<svg width="24" height="24" viewBox="0 0 24 24" fill="none" xmlns="http://www.w3.org/2000/svg">
<path d="M4.98195 12.7375L13.5431 6.02228C14.3718 5.37228 15.4248 5.0781 16.4704 5.20444C17.5159 5.33078 18.4685 5.86731 19.1185 6.69598L20.4093 8.34157C20.6259 8.61779 20.724 8.96877 20.6819 9.3173C20.6398 9.66583 20.4609 9.98335 20.1847 10.2L7.45746 20.183C7.18123 20.3997 6.83025 20.4978 6.48173 20.4556C6.1332 20.4135 5.81568 20.2347 5.59901 19.9585L4.30824 18.3129C3.65825 17.4842 3.36406 16.4313 3.4904 15.3857C3.61675 14.3401 4.15327 13.3875 4.98195 12.7375V12.7375Z" stroke="#000001" stroke-width="0.772148" stroke-linecap="round" stroke-linejoin="round"/>
<path d="M6.61426 11.4545L8.6792 14.1018" stroke="#000001" stroke-width="0.772148" stroke-linecap="round" stroke-linejoin="round"/>
<path d="M11.3662 7.72168L13.4444 10.369" stroke="#000001" stroke-width="0.772148" stroke-linecap="round" stroke-linejoin="round"/>
</svg>
