<svg width="24" height="24" viewBox="0 0 24 24" fill="none" xmlns="http://www.w3.org/2000/svg">
<path d="M20.8268 3.17226C20.596 2.94144 20.2218 2.94144 19.9909 3.17226L19.1022 4.0611C18.1959 3.52695 17.007 3.6486 16.2295 4.42612C15.4519 5.20368 15.3302 6.39253 15.8645 7.2988L15.3936 7.76963L14.5577 6.93374C14.327 6.70292 13.9527 6.70292 13.7219 6.93374C13.491 7.16456 13.491 7.5388 13.7219 7.76963L14.5577 8.60551L14.1398 9.02345L13.3039 8.18757C13.0731 7.95675 12.6989 7.95675 12.468 8.18757L10.7963 9.8593C10.5656 10.09 10.5655 10.4644 10.7963 10.6952L11.6322 11.5311L11.2142 11.949L10.3783 11.1131C10.1475 10.8823 9.7733 10.8823 9.54244 11.1131C9.31159 11.344 9.31162 11.7182 9.54244 11.949L10.3783 12.7849L9.90751 13.2557C9.00123 12.7215 7.81238 12.8432 7.03486 13.6207C6.25112 14.4045 6.13657 15.5935 6.66952 16.4937L6.56404 16.5992C5.65777 16.065 4.46892 16.1867 3.69136 16.9642C2.76955 17.8861 2.76955 19.3859 3.69136 20.3078C4.61666 21.233 6.11203 21.2306 7.0349 20.3078C7.36986 19.9728 7.59436 19.5507 7.68412 19.087C7.74618 18.7665 7.53666 18.4564 7.21622 18.3944C6.89574 18.3323 6.58563 18.5418 6.52357 18.8623C6.47881 19.0935 6.36658 19.3043 6.19905 19.4718C5.73814 19.9327 4.98822 19.9327 4.52728 19.4718C4.06637 19.0109 4.06637 18.261 4.52728 17.8001C4.98819 17.3392 5.73811 17.3392 6.19905 17.8001C6.42987 18.0309 6.80415 18.0309 7.03493 17.8001L7.50544 17.3296C8.40014 17.8592 9.59009 17.7526 10.3784 16.9642C11.1622 16.1805 11.2767 14.9914 10.7437 14.0913L11.2143 13.6207L12.0502 14.4566C12.281 14.6874 12.6552 14.6874 12.8861 14.4566C13.1169 14.2257 13.1169 13.8515 12.8861 13.6207L12.0502 12.7848L12.4681 12.3668L13.304 13.2027C13.5348 13.4336 13.909 13.4336 14.1399 13.2027L15.8116 11.531C16.0424 11.3003 16.0424 10.9259 15.8116 10.6951L14.9758 9.85923L15.3937 9.44129L16.2296 10.2772C16.4604 10.508 16.8346 10.508 17.0655 10.2772C17.2963 10.0464 17.2963 9.67211 17.0655 9.44129L16.2296 8.60541L16.7001 8.1349C17.5948 8.66451 18.7847 8.55794 19.5731 7.76956C20.3506 6.992 20.4723 5.80319 19.9381 4.89688L20.8268 4.00808C21.0576 3.77729 21.0576 3.40309 20.8268 3.17226ZM9.54244 16.1284C9.08048 16.5904 8.33274 16.5904 7.87071 16.1284C7.40875 15.6664 7.40871 14.9187 7.87071 14.4567C8.33165 13.9958 9.08154 13.9958 9.54244 14.4567C10.0044 14.9187 10.0045 15.6664 9.54244 16.1284ZM13.7219 11.949L12.0501 10.2773L12.886 9.4414L14.5577 11.1131L13.7219 11.949ZM18.7371 6.93378C18.2751 7.39577 17.5274 7.39577 17.0654 6.93378C16.6045 6.47283 16.6045 5.72292 17.0654 5.26201C17.5262 4.80117 18.2762 4.80107 18.7371 5.26201C19.198 5.72292 19.198 6.47283 18.7371 6.93378Z" fill="black"/>
</svg>
