<svg width="24" height="24" viewBox="0 0 24 24" fill="none" xmlns="http://www.w3.org/2000/svg">
<path d="M6.27379 3.43823C6.18649 3.43823 6.10149 3.46614 6.03119 3.51789C5.96089 3.56964 5.90899 3.64253 5.88306 3.72588L5.62178 4.5281C5.31265 5.47478 5.4172 6.56414 5.92941 7.34946C6.26731 7.86754 6.37359 8.76807 6.14435 9.47008L5.88306 10.2715C5.86638 10.3226 5.85993 10.3765 5.86407 10.4301C5.86821 10.4837 5.88287 10.5359 5.9072 10.5839C5.93154 10.6318 5.96508 10.6745 6.0059 10.7094C6.04673 10.7444 6.09404 10.771 6.14515 10.7877C6.19625 10.8044 6.25013 10.8108 6.30373 10.8067C6.35732 10.8025 6.40958 10.7879 6.45751 10.7635C6.50544 10.7392 6.54811 10.7057 6.58308 10.6648C6.61805 10.624 6.64463 10.5767 6.66132 10.5256L6.9226 9.72337C7.23173 8.7767 7.12718 7.68733 6.61497 6.90201C6.27707 6.38394 6.17079 5.4834 6.40003 4.78139L6.66132 3.97997C6.68243 3.91833 6.68852 3.85254 6.67908 3.78807C6.66963 3.72361 6.64493 3.66233 6.60702 3.60933C6.56911 3.55634 6.5191 3.51317 6.46114 3.48341C6.40318 3.45365 6.33894 3.43816 6.27379 3.43823ZM9.1375 3.43823C9.0502 3.43823 8.96519 3.46614 8.89489 3.51789C8.8246 3.56964 8.77269 3.64253 8.74677 3.72588L8.48549 4.5281C8.17635 5.47478 8.28091 6.56414 8.79312 7.34946C9.13102 7.86754 9.23729 8.76807 9.00805 9.47008L8.74677 10.2715C8.73009 10.3226 8.72363 10.3765 8.72777 10.4301C8.73191 10.4837 8.74657 10.5359 8.77091 10.5839C8.79525 10.6318 8.82878 10.6745 8.86961 10.7094C8.91044 10.7444 8.95775 10.771 9.00885 10.7877C9.05995 10.8044 9.11384 10.8108 9.16743 10.8067C9.22103 10.8025 9.27328 10.7879 9.32122 10.7635C9.36915 10.7392 9.41182 10.7057 9.44678 10.6648C9.48175 10.624 9.50834 10.5767 9.52502 10.5256L9.7863 9.72337C10.0954 8.7767 9.99089 7.68733 9.47868 6.90201C9.14078 6.38394 9.0345 5.4834 9.26374 4.78139L9.52502 3.97997C9.54614 3.91833 9.55223 3.85254 9.54278 3.78807C9.53334 3.72361 9.50864 3.66233 9.47073 3.60933C9.43282 3.55634 9.38281 3.51317 9.32484 3.48341C9.26688 3.45365 9.20265 3.43816 9.1375 3.43823ZM12.0012 3.43823C11.9139 3.43823 11.8289 3.46614 11.7586 3.51789C11.6883 3.56964 11.6364 3.64253 11.6105 3.72588L11.3492 4.5281C11.0401 5.47478 11.1446 6.56414 11.6568 7.34946C11.9947 7.86754 12.101 8.76807 11.8718 9.47008L11.6105 10.2715C11.5938 10.3226 11.5873 10.3765 11.5915 10.4301C11.5956 10.4837 11.6103 10.5359 11.6346 10.5839C11.659 10.6318 11.6925 10.6745 11.7333 10.7094C11.7741 10.7444 11.8215 10.771 11.8726 10.7877C11.9237 10.8044 11.9775 10.8108 12.0311 10.8067C12.0847 10.8025 12.137 10.7879 12.1849 10.7635C12.2329 10.7392 12.2755 10.7057 12.3105 10.6648C12.3455 10.624 12.372 10.5767 12.3887 10.5256L12.65 9.72337C12.9591 8.7767 12.8546 7.68733 12.3424 6.90201C12.0045 6.38394 11.8982 5.4834 12.1274 4.78139L12.3887 3.97997C12.4098 3.91833 12.4159 3.85254 12.4065 3.78807C12.397 3.72361 12.3723 3.66233 12.3344 3.60933C12.2965 3.55634 12.2465 3.51317 12.1886 3.48341C12.1306 3.45365 12.0664 3.43816 12.0012 3.43823ZM19.6111 5.90083C19.5188 5.9006 19.4266 5.90958 19.3363 5.9272C18.9748 5.99765 18.6406 6.20835 18.427 6.54085L18.4605 6.4961L13.3731 12.444H3.40848C3.29999 12.4441 3.19594 12.4872 3.11922 12.5639C3.0425 12.6406 2.99939 12.7447 2.99938 12.8531V14.0805C2.99938 14.1629 3.02767 14.2378 3.03134 14.3194C2.99919 14.3895 2.98754 14.4673 2.99772 14.5438C3.0079 14.6203 3.0395 14.6923 3.08887 14.7516C3.30342 16.4559 4.25125 17.9528 5.50193 19.0424C6.91728 20.2755 8.66398 21.0352 10.1586 21.0352H13.8406C15.3352 21.0352 17.0819 20.2755 18.4973 19.0424C19.9126 17.8093 20.9998 16.0714 20.9998 14.0805V12.8531C20.9998 12.7447 20.9567 12.6406 20.88 12.5639C20.8033 12.4872 20.6992 12.4441 20.5907 12.444H16.4741L20.6746 8.18844C20.686 8.17709 20.6966 8.16508 20.7066 8.15248C21.1915 7.52795 21.0552 6.61112 20.4093 6.15492C20.1672 5.98389 19.8881 5.90152 19.6111 5.90083ZM19.6039 6.71424C19.7181 6.71512 19.8344 6.7503 19.9371 6.8229C20.209 7.01496 20.2622 7.37988 20.0618 7.6443L15.3243 12.444H14.4502L19.0822 7.02825C19.0941 7.0141 19.105 6.99915 19.1149 6.98351C19.2057 6.84227 19.3428 6.75358 19.4913 6.72462C19.5284 6.71739 19.5659 6.71394 19.6039 6.71424ZM3.81758 13.2622H13.5034C13.5413 13.2676 13.5797 13.2676 13.6176 13.2622H15.4378C15.4739 13.2671 15.5104 13.2671 15.5465 13.2622H20.1816V14.0805C20.1816 15.7714 19.2443 17.3063 17.9595 18.4256C16.6748 19.5448 15.046 20.217 13.8406 20.217H10.1586C8.95325 20.217 7.32439 19.5448 6.03967 18.4256C4.96783 17.4918 4.17353 16.2603 3.92785 14.8987H18.5452C18.5994 14.8994 18.6533 14.8894 18.7036 14.8692C18.7539 14.849 18.7997 14.819 18.8383 14.7809C18.8769 14.7428 18.9075 14.6975 18.9284 14.6475C18.9494 14.5974 18.9601 14.5438 18.9601 14.4896C18.9601 14.4353 18.9494 14.3817 18.9284 14.3316C18.9075 14.2816 18.8769 14.2363 18.8383 14.1982C18.7997 14.1601 18.7539 14.1301 18.7036 14.1099C18.6533 14.0897 18.5994 14.0797 18.5452 14.0805H3.81758V13.2622Z" fill="black"/>
</svg>
