<svg width="24" height="24" viewBox="0 0 24 24" fill="none" xmlns="http://www.w3.org/2000/svg">
<path d="M19.8775 12.9943C20.0806 13.4532 20.1857 13.9495 20.1861 14.4514C20.1861 15.429 19.7978 16.3664 19.1066 17.0577C18.4154 17.7489 17.4779 18.1372 16.5004 18.1372H7.50023C7.01589 18.1383 6.5361 18.0438 6.08841 17.8589C5.64072 17.6741 5.23396 17.4027 4.89148 17.0602C4.549 16.7177 4.27755 16.3109 4.09272 15.8632C3.9079 15.4156 3.81333 14.9358 3.81446 14.4514C3.81487 13.9495 3.91997 13.4532 4.12304 12.9943" stroke="#020202" stroke-width="0.857155" stroke-miterlimit="10"/>
<path d="M9.54866 12.5228C7.2172 12.7285 5.26289 13.1314 4.12287 12.9942C3.42858 12.9257 3 12.6428 3 11.9999C3 10.2856 5.76861 7.76559 9.54866 6.95129" stroke="#020202" stroke-width="0.857155" stroke-miterlimit="10"/>
<path d="M14.4512 6.95129C18.2312 7.76559 20.9998 10.2856 20.9998 11.9999C20.9998 12.6428 20.5884 12.9257 19.877 12.9942C18.7369 13.1314 16.7826 12.7285 14.4512 12.5228" stroke="#020202" stroke-width="0.857155" stroke-miterlimit="10"/>
<path d="M10.286 5.86277H13.7146C13.9033 5.86277 14.0842 5.93772 14.2177 6.07114C14.3511 6.20457 14.426 6.38552 14.426 6.57421V18.1372H9.54883V6.57421C9.54877 6.47858 9.56798 6.38391 9.60533 6.29588C9.64268 6.20784 9.6974 6.12824 9.76621 6.06183C9.83502 5.99542 9.91652 5.94356 10.0058 5.90936C10.0951 5.87516 10.1904 5.85931 10.286 5.86277Z" stroke="#020202" stroke-width="0.857155" stroke-miterlimit="10"/>
<path d="M18 11.0313V8.57129" stroke="#020202" stroke-width="0.857155" stroke-miterlimit="10"/>
<path d="M6.27441 10.7742V8.31421" stroke="#020202" stroke-width="0.857155" stroke-miterlimit="10"/>
</svg>
