<svg width="24" height="24" viewBox="0 0 24 24" fill="none" xmlns="http://www.w3.org/2000/svg">
<path d="M20.9693 3.67175C20.9398 3.61844 20.8919 3.57771 20.8345 3.55721C20.7771 3.5367 20.7142 3.53782 20.6576 3.56036C12.7597 6.75465 12.3209 11.5221 12.426 14.3159C12.0668 13.4603 11.4853 12.5087 10.5325 11.7152C8.79952 10.2718 6.33654 9.76413 3.21275 10.2067C3.15918 10.2155 3.10991 10.2415 3.07237 10.2807C3.03484 10.32 3.01108 10.3703 3.00468 10.4242C2.99827 10.4781 3.00957 10.5327 3.03687 10.5796C3.06417 10.6265 3.10599 10.6633 3.15602 10.6844C3.17688 10.6919 5.20433 11.5217 6.93935 14.0143L7.01903 14.1294C7.86881 15.3534 9.17957 17.2411 11.2283 17.2411C11.6626 17.2362 12.0928 17.1574 12.5007 17.0083V20.2059C12.5073 20.2673 12.5364 20.324 12.5823 20.3652C12.6283 20.4065 12.6878 20.4293 12.7495 20.4293C12.8112 20.4293 12.8708 20.4065 12.9167 20.3652C12.9626 20.324 12.9917 20.2673 12.9984 20.2059V16.8652C14.2036 16.6884 19.7566 15.5478 19.593 9.60143C19.4675 5.11099 20.8858 4.00298 20.8963 3.99422C20.9456 3.95853 20.9802 3.90611 20.9936 3.84675C21.007 3.7874 20.9984 3.72519 20.9693 3.67175ZM7.42744 13.8457L7.34693 13.7306C6.1655 12.0331 4.87227 11.0778 4.08298 10.606C6.67946 10.3715 8.73737 10.8721 10.2096 12.0936C11.4728 13.1428 12.0422 14.5282 12.2954 15.4961C11.5174 14.4469 10.0381 12.8354 7.70653 11.7724C7.64675 11.746 7.57895 11.7442 7.51785 11.7674C7.45675 11.7906 7.40729 11.8371 7.38021 11.8966C7.35312 11.9561 7.3506 12.0238 7.37319 12.0852C7.39578 12.1465 7.44166 12.1965 7.50087 12.2242C10.3848 13.5395 11.9383 15.7873 12.386 16.5186C9.91629 17.4238 8.48289 15.3659 7.42744 13.8457ZM19.0945 9.61562C19.2443 14.9921 14.4977 16.1306 13.1064 16.3488C13.4247 15.4385 14.4726 12.8537 17.1259 9.29857C17.1574 9.24542 17.1681 9.1825 17.156 9.12192C17.1439 9.06134 17.1098 9.00737 17.0603 8.97041C17.0108 8.93344 16.9494 8.91608 16.8879 8.92168C16.8263 8.92727 16.7691 8.95542 16.727 9.0007C14.6262 11.8149 13.5211 14.0068 12.9767 15.2975C12.9721 15.2174 12.9683 15.1415 12.9629 15.0551C12.8161 12.6585 12.5157 7.76295 19.9839 4.38845C19.5325 5.21195 19.0161 6.78385 19.0945 9.61562Z" fill="black"/>
</svg>
